<?xml version="1.0" encoding="UTF-8"?>
<svg width="29px" height="30px" viewBox="0 0 29 30" version="1.1" xmlns="http://www.w3.org/2000/svg" xmlns:xlink="http://www.w3.org/1999/xlink">
    <title>back-to-top-stars</title>
    <g id="Welcome" stroke="none" stroke-width="1" fill="none" fill-rule="evenodd">
        <g id="Style-Guide" transform="translate(-136.000000, -1118.000000)" fill="#BB8472">
            <g id="Group-7" transform="translate(109.000000, 1100.000000)">
                <g id="back-to-top-stars" transform="translate(27.000000, 18.000000)">
                    <path d="M3.80277771,6.56901875 C3.57315423,6.48255021 3.34957346,6.37655652 3.07765091,6.39050306 C2.81932448,6.39887098 2.72717295,6.12133488 2.52020968,6.01115723 C2.51265627,6.00697327 2.50661355,6.00697327 2.50208151,6.00418396 C2.70904478,5.9093475 2.92507214,5.8340362 3.19246265,5.82985224 C3.83450201,5.81869501 3.94478171,5.02932096 4.4508598,4.85638389 C4.63063082,4.78525655 4.9161495,4.80059774 5.00981171,4.62347671 C5.05664282,4.51050975 5.12764481,4.44356637 5.19109341,4.34733526 C5.31496924,4.16881957 5.46905869,4.01680231 5.60048792,3.84525989 C5.68961809,3.73089828 5.82709005,3.64442975 5.88449592,3.51054298 C5.97664745,3.29716095 6.09296987,3.09214685 6.07786307,2.83971451 C6.0672883,2.60122871 6.36791379,2.51754948 6.48725758,2.32508726 C6.49027894,2.31950864 6.49027894,2.31393003 6.49481098,2.30835141 C6.59904796,2.50081364 6.67911404,2.69885448 6.68364608,2.9457082 C6.69724221,3.53843606 7.54926621,3.63885113 7.73659063,4.10606015 C7.81514604,4.27341861 7.80003923,4.53840283 7.99038502,4.62347671 C8.11426084,4.66671098 8.18526284,4.7322597 8.2910105,4.79083516 C8.48286697,4.90519677 8.64904186,5.04745146 8.83485561,5.16878634 C8.95722076,5.25107091 9.05088297,5.37798441 9.19741901,5.43098125 C9.42855318,5.51744979 9.64911258,5.62344348 9.92254582,5.61089159 C10.1823829,5.59973436 10.2730238,5.87727047 10.479987,5.98884277 C10.4860298,5.99163208 10.4935832,5.99163208 10.4996259,5.99581604 C10.2911519,6.0906525 10.0751246,6.1659638 9.80924475,6.16875311 C9.16720539,6.18130499 9.05843637,6.96928438 8.55084761,7.14361611 C8.36956591,7.2133488 8.08253655,7.19800761 7.99038502,7.37652329 C7.94506459,7.4880956 7.87255191,7.55643363 7.81061399,7.65266474 C7.68522748,7.83118043 7.53264872,7.98319769 7.39970881,8.15474011 C7.31057864,8.26910172 7.17310668,8.3541756 7.11570081,8.48945702 C7.02354927,8.70283905 6.90873753,8.90785315 6.92233366,9.15889084 C6.93290842,9.39877129 6.63228294,9.48245052 6.51293915,9.67491274 C6.50840711,9.6790967 6.50840711,9.68606997 6.50538575,9.69304324 C6.40265945,9.49918636 6.319572,9.30114552 6.31655064,9.0542918 C6.30295451,8.46156394 5.44941983,8.35975421 5.26209541,7.89254519 C5.18505069,7.72658139 5.20317886,7.46159717 5.00981171,7.37652329 C4.88744656,7.33328902 4.81493388,7.26634564 4.71220758,7.20916484 C4.51732975,7.09340857 4.35115486,6.95254854 4.16534112,6.82981901 C4.04297597,6.74753443 3.94931376,6.62201559 3.80277771,6.56901875 M4.43424231,8.31512529 C4.52488316,8.45737998 4.54905405,8.63868497 4.66688716,8.74886262 C4.87233975,8.91064246 5.1759866,9.02639873 5.33762945,9.24117541 C5.47056937,9.43642694 5.40561009,9.71814701 5.48416549,9.92455577 C5.52948592,10.0668105 5.74702396,10.153279 5.8150046,10.2969283 C5.89204932,10.5284409 5.84823958,10.7850572 5.94794451,11.0082018 C6.01139311,11.1546404 5.87392115,11.3289721 5.97362609,11.4684375 C6.03103196,11.55909 6.05671353,11.6511372 6.08692715,11.744579 C6.00535039,11.7933918 6.03707468,11.853362 6.14282234,11.9035695 C6.14735438,11.9426198 6.15037575,11.9956166 6.34827494,11.999908 C6.39963809,12.0011953 6.43287306,11.9886434 6.47819349,11.9830648 C6.90571617,12.0193258 7.02052791,11.8938069 7.07340174,11.8143117 C7.16555327,11.6748463 7.1081474,11.5256183 7.14591442,11.381969 C7.21691642,11.1030382 7.22598051,10.8157395 7.30302523,10.5368088 C7.33777089,10.3471359 7.41783698,10.1700148 7.47675353,9.98592054 C7.53567008,9.80043158 7.65048183,9.6400464 7.72148382,9.4587414 C7.75169744,9.37506218 7.75018676,9.2746471 7.79852855,9.19794114 C8.03721612,8.77117708 8.38165135,8.40438314 8.73817203,8.05571969 C8.81370608,7.99296027 8.91643237,7.95251531 9.00707322,7.90649173 C9.16116267,7.82420716 9.35906186,7.8018927 9.47840565,7.69171505 C9.65364463,7.50343679 9.77903114,7.22171672 10.0101653,7.07388342 C10.2216606,6.94975923 10.5268182,7.00972934 10.7519096,6.93720735 C10.905999,6.89676239 10.9996613,6.69453759 11.1552614,6.63317282 C11.4060344,6.56204548 11.6855104,6.60109578 11.9257086,6.51044329 C12.0828194,6.45047317 12.2716545,6.57738667 12.4242333,6.48533952 C12.5209169,6.43373733 12.6206218,6.40863356 12.7218374,6.38213514 C12.7732006,6.45744644 12.8381598,6.42536941 12.8955657,6.33053295 C12.9363541,6.32634899 12.9922493,6.32355968 12.9999082,6.14086003 C13.0013134,6.09204715 12.9862066,6.06136477 12.9801638,6.0181305 C13.0209522,5.62483813 12.8834803,5.51884444 12.7973715,5.47142621 C12.6463034,5.38635233 12.4846605,5.43655987 12.3305711,5.40448283 C12.0269242,5.3389341 11.7172347,5.33056618 11.4150985,5.25804418 C11.2081352,5.2273618 11.0162787,5.15344515 10.8183796,5.097659 C10.6189697,5.04466215 10.44222,4.93866846 10.2473422,4.87311974 C10.1567013,4.84383201 10.0479323,4.84522666 9.9633342,4.80199239 C9.50106586,4.58024244 9.1037568,4.26226138 8.72759727,3.93451774 C8.65810595,3.86339039 8.61731757,3.76994859 8.56595442,3.68487471 C8.47682425,3.54401467 8.45114267,3.36131503 8.33179889,3.25113738 C8.12785697,3.08935754 7.82421012,2.97360127 7.66558863,2.76021924 C7.53113804,2.56357306 7.59458663,2.28185299 7.51452055,2.07544423 C7.47373217,1.93318954 7.25317276,1.84672101 7.18519213,1.70307167 C7.1081474,1.47016449 7.15195715,1.21354819 7.05225221,0.991798235 C6.98729293,0.845359587 7.12476489,0.671027863 7.02657064,0.531562484 C6.96916476,0.440909988 6.94197251,0.348862837 6.91326957,0.256815687 C6.99635702,0.206608151 6.96161136,0.148032691 6.85737438,0.0950358474 C6.85284234,0.0587748488 6.85133166,0.00438335097 6.65192179,9.20163877e-05 C6.59904796,-0.0011952642 6.56732366,0.0113566199 6.52049255,0.0169352351 C6.09448056,-0.0207204173 5.97966881,0.106193078 5.92679498,0.185688344 C5.83615413,0.325153723 5.89204932,0.474381679 5.8542823,0.616636365 C5.78479098,0.896961777 5.7757269,1.1828658 5.69717149,1.46179656 C5.66242583,1.65286413 5.58387043,1.82998516 5.5234432,2.01407946 C5.46603732,2.19817376 5.3497149,2.3599536 5.28022358,2.5412586 C5.24849928,2.62354317 5.25000996,2.7253529 5.20317886,2.80205886 C4.96449128,3.22882292 4.61854537,3.59561686 4.26353537,3.94428031 C4.18497997,4.00703973 4.08527503,4.04609004 3.9931235,4.09350827 C3.83903405,4.17579284 3.64264554,4.1981073 3.52179108,4.30828495 C3.3465521,4.49656321 3.22116559,4.77828328 2.99003142,4.92472193 C2.77702542,5.04884611 2.47186789,4.99027066 2.24979781,5.06279265 C2.09419768,5.10184296 2.00204615,5.30546241 1.84493534,5.36682718 C1.59416232,5.43795452 1.31619704,5.39750956 1.07448811,5.48955671 C0.917377301,5.54952683 0.728542196,5.42261333 0.575963431,5.51466048 C0.479279856,5.56626267 0.37806424,5.59136644 0.278359304,5.61786486 C0.225485475,5.54255356 0.160526198,5.57463059 0.104631007,5.66946705 C0.0623319434,5.67365101 0.00492607131,5.67644032 0.000394028773,5.85913997 C-0.00262733292,5.90795285 0.0124794755,5.93863523 0.0200328798,5.98326415 C-0.0207555031,6.37516187 0.116716454,6.48115556 0.201314581,6.52857379 C0.353893346,6.61364767 0.514025516,6.56204548 0.669625643,6.59551717 C0.971761812,6.6610659 1.28296207,6.66943382 1.58509823,6.74195582 C1.79206151,6.7726382 1.98391798,6.84655485 2.18332785,6.902341 C2.38273772,6.95533785 2.5579767,7.06272619 2.75436521,7.12688026 C2.84349538,7.15477334 2.95377508,7.15337869 3.03535185,7.19800761 C3.49913086,7.41836291 3.89643993,7.73773862 4.27411014,8.06548226 C4.34209078,8.13660961 4.38590052,8.23005141 4.43424231,8.31512529" id="Fill-1"></path>
                    <path d="M26.4955934,15.0392192 C26.3793197,15.0624739 26.1598532,14.9941632 26.1278779,15.1278779 C26.1133437,15.2107229 26.0726479,15.2514187 26.0421261,15.3168226 C25.9854426,15.43891 25.8938771,15.5275687 25.8197526,15.6336684 C25.7688829,15.7034326 25.6773174,15.7470353 25.6497024,15.8342405 C25.6264476,15.9127253 25.6060997,15.99121 25.5944724,16.0726016 C25.5406958,15.7731968 25.0000232,15.7862776 24.9593274,15.4955934 C24.9389795,15.3793197 25.0058368,15.1598532 24.8721221,15.1278779 C24.7892771,15.1133437 24.7485813,15.0726479 24.6831774,15.0435795 C24.56109,14.9854426 24.4709779,14.8938771 24.3663316,14.8197526 C24.2951139,14.7674295 24.2515113,14.6758639 24.1643061,14.6511558 C24.0872747,14.6264476 24.00879,14.6060997 23.925945,14.5959258 C24.2253497,14.5406958 24.2137224,14.0000232 24.5029532,13.9607808 C24.6206803,13.9375261 24.8401468,14.0058368 24.8721221,13.8721221 C24.8866563,13.7892771 24.9273521,13.7485813 24.9564205,13.6831774 C25.0131039,13.56109 25.1046695,13.4709779 25.1817008,13.3663316 C25.2311171,13.2965674 25.3226826,13.2529647 25.3488442,13.1643061 C25.3735524,13.0872747 25.3939003,13.00879 25.4026208,12.925945 C25.4578508,13.2268032 25.9999768,13.2137224 26.0392192,13.5029532 C26.0624739,13.6206803 25.9941632,13.8401468 26.1278779,13.8721221 C26.2107229,13.8866563 26.2514187,13.9273521 26.3168226,13.9564205 C26.43891,14.0131039 26.5275687,14.1046695 26.6336684,14.1802474 C26.7034326,14.2311171 26.7470353,14.3226826 26.8342405,14.3488442 C26.9127253,14.3735524 26.9897566,14.3939003 27.0726016,14.4040742 C26.7717434,14.4593042 26.7848242,14.9999768 26.4955934,15.0392192 M28.8995518,13.9535137 C28.8254274,13.8692153 28.7440358,13.9229918 28.6684579,13.8982837 C28.5216624,13.8503208 28.3646929,13.8634016 28.2120837,13.8299729 C28.1088908,13.8168921 28.0115116,13.7805566 27.9126789,13.754395 C27.8094861,13.7282334 27.7251876,13.6671897 27.6234482,13.6381213 C27.5769387,13.6264939 27.5086279,13.6526555 27.4664787,13.6294008 C27.2295711,13.5116737 27.0275455,13.3372632 26.8371474,13.1570389 C26.8037187,13.1163432 26.7935447,13.0538461 26.7775571,13.0000695 C26.7470353,12.9099574 26.7731968,12.7806029 26.7063395,12.7311866 C26.5871589,12.6599689 26.356065,12.6468882 26.2674063,12.5306145 C26.1918284,12.4245147 26.300835,12.2312097 26.2703132,12.1192963 C26.2543255,12.0408116 26.0682876,12.0219171 26.0304987,11.9419789 C25.9854426,11.8140779 26.0639274,11.6600153 25.9854426,11.545195 C25.9345729,11.4667103 26.0813684,11.3606105 25.9927097,11.2893929 C25.9447468,11.2486971 25.9258524,11.2021876 25.9011442,11.158585 C25.9839892,11.1295166 25.9476537,11.0902742 25.8444608,11.0582989 C25.8386471,11.0364976 25.8502745,11.0030689 25.6467955,11.0001621 C25.5944724,10.9987087 25.5610437,11.0074292 25.5174411,11.0103361 C25.1090297,10.9885347 25.0014766,11.0597524 24.9520603,11.1004482 C24.8706687,11.1745726 24.9229918,11.2545108 24.8968303,11.3315421 C24.8488674,11.4783376 24.864855,11.6353071 24.8299729,11.7864629 C24.8168921,11.8896558 24.7805566,11.987035 24.754395,12.0887745 C24.72678,12.1890605 24.6671897,12.2748124 24.6395747,12.3750984 C24.6264939,12.4216079 24.6512021,12.4913721 24.6279474,12.5335213 C24.5131271,12.7704289 24.3372632,12.9724545 24.1570389,13.1613992 C24.1163432,13.1962813 24.0538461,13.2050018 24.0000695,13.2224429 C23.9099574,13.2529647 23.7820563,13.2253497 23.7311866,13.2951139 C23.6599689,13.4113876 23.6468882,13.6424816 23.5306145,13.7325937 C23.4245147,13.8081716 23.2312097,13.699165 23.1192963,13.7296868 C23.0408116,13.7456745 23.0204637,13.9302589 22.9419789,13.9695013 C22.8140779,14.0145574 22.6600153,13.9346192 22.5437416,14.0145574 C22.4667103,14.0654271 22.3606105,13.9186316 22.2893929,14.0072903 C22.2472437,14.0537997 22.2021876,14.0726942 22.1571316,14.0974024 C22.1280632,14.0160108 22.0902742,14.0523463 22.0582989,14.1555392 C22.0379511,14.1598995 22.0030689,14.1482721 22.0001621,14.3532045 C21.9987087,14.4040742 22.0074292,14.4360495 22.0103361,14.4811055 C21.9870813,14.8909703 22.0582989,14.9985234 22.1004482,15.0450329 C22.1731192,15.1293313 22.2545108,15.0770082 22.3315421,15.1017163 C22.4783376,15.1496792 22.6353071,15.135145 22.7864629,15.1700271 C22.8911092,15.1831079 22.987035,15.2194434 23.0887745,15.245605 C23.1890605,15.2717666 23.2748124,15.3328103 23.3765518,15.3618787 C23.4216079,15.3735061 23.4913721,15.3473445 23.5335213,15.3705992 C23.7704289,15.4883263 23.9710011,15.6627368 24.1628526,15.8429611 C24.1962813,15.8822034 24.2050018,15.9461539 24.2224429,15.9999305 C24.2529647,16.0900426 24.2253497,16.2193971 24.2951139,16.2688134 C24.4113876,16.3400311 24.643935,16.3531118 24.7325937,16.4693855 C24.8081716,16.5754853 24.699165,16.7673368 24.7296868,16.8807037 C24.7456745,16.9591884 24.9302589,16.9780829 24.9680479,17.0580211 C25.0131039,17.1859221 24.9346192,17.3399847 25.0145574,17.454805 C25.0668805,17.5332897 24.920085,17.6393895 25.0072903,17.7091537 C25.0523463,17.7513029 25.0726942,17.7978124 25.0959489,17.8428684 C25.0160108,17.8719368 25.0523463,17.9097258 25.1555392,17.9417011 C25.1598995,17.9620489 25.1482721,17.9969311 25.3532045,17.9998379 C25.4026208,18.0012913 25.4360495,17.9925708 25.4811055,17.9896639 C25.8895168,18.0114653 25.99707,17.9402476 26.0450329,17.8995518 C26.1293313,17.8254274 26.0770082,17.7440358 26.1017163,17.6684579 C26.1496792,17.5216624 26.1365984,17.3646929 26.1700271,17.2120837 C26.1816545,17.1088908 26.2194434,17.0115116 26.245605,16.9112255 C26.2717666,16.8109395 26.3328103,16.7251876 26.3604253,16.6234482 C26.3735061,16.5783921 26.3473445,16.5086279 26.3705992,16.4650253 C26.4883263,16.2295711 26.6627368,16.0275455 26.8429611,15.8371474 C26.8836568,15.8037187 26.9461539,15.7949982 26.9999305,15.7775571 C27.0885892,15.7470353 27.2179437,15.7731968 27.26736,15.7048861 C27.3400311,15.5871589 27.3531118,15.356065 27.4693855,15.2674063 C27.5754853,15.1918284 27.7687903,15.300835 27.8807037,15.2703132 C27.9591884,15.2543255 27.9795363,15.0697411 28.0565676,15.0304987 C28.1859221,14.9854426 28.3399847,15.0653808 28.4562584,14.9854426 C28.5318363,14.9345729 28.6393895,15.079915 28.7091537,14.9927097 C28.7513029,14.9462003 28.7978124,14.9273058 28.841415,14.9025976 C28.8719368,14.9825358 28.9082724,14.9476537 28.9417011,14.8444608 C28.9620489,14.8401005 28.9969311,14.8517279 28.9998379,14.6467955 C29.0012913,14.5959258 28.9925708,14.5639505 28.9896639,14.5203479 C29.0114653,14.1090297 28.9402476,14.0014766 28.8995518,13.9535137" id="Fill-4"></path>
                    <path d="M17.9197239,21.9225721 C17.1467558,22.012143 16.892471,22.9324111 16.2712069,23.2242387 C16.0530421,23.339814 15.7308517,23.3672631 15.5950405,23.5940796 C15.5242452,23.7399934 15.4332228,23.835343 15.3479796,23.9624758 C15.1587108,24.209518 14.991114,24.4247769 14.8148484,24.6544828 C14.6992644,24.8133988 14.5345572,24.9405316 14.4565379,25.1240074 C14.3279507,25.4143903 14.1675779,25.6917709 14.1516851,26.0269392 C14.1300131,26.3447713 13.8049331,26.4921297 13.6691219,26.7651763 C13.5983267,26.8865304 13.5752099,27.0266654 13.5217523,27.1552429 C13.3165906,26.7593976 13.133101,26.388112 13.0767538,25.9200321 C12.9871762,25.1456777 12.0668385,24.8928568 11.7749889,24.2716397 C11.6579601,24.0534913 11.6319537,23.7313252 11.40512,23.5955243 C11.2591952,23.5232897 11.1638384,23.4337189 11.036696,23.3470374 C10.7896352,23.1577829 10.57436,22.9916435 10.3460815,22.8139465 C10.1857087,22.6998159 10.0600111,22.5351211 9.8750767,22.4571078 C9.58467187,22.3270856 9.30727025,22.1696143 8.97352141,22.152278 C8.65422058,22.1306076 8.50685097,21.8055521 8.23522854,21.6683065 C8.11386533,21.5989613 7.97227492,21.577291 7.8422429,21.5223927 C8.23956294,21.3172466 8.61087658,21.1352155 9.08043662,21.0774279 C9.8534047,20.987857 10.1076895,20.0675889 10.7275088,19.7757613 C10.9471184,19.6587413 11.267864,19.6327369 11.40512,19.4059204 C11.4744705,19.2600066 11.5669377,19.164657 11.6507361,19.0375242 C11.8414497,18.7919267 12.0076017,18.5752231 12.1853121,18.3455172 C12.2994513,18.1866012 12.4641586,18.0594684 12.5421778,17.8759926 C12.6722098,17.5856097 12.8311378,17.3082291 12.8470306,16.9730608 C12.8687026,16.6552287 13.1937826,16.5078703 13.3310386,16.2348237 C13.400389,16.1134696 13.4235058,15.9733346 13.4769634,15.8447571 C13.6806803,16.2406024 13.8641699,16.611888 13.9219619,17.0799679 C14.0129843,17.8543223 14.9318772,18.1071432 15.2251716,18.7283603 C15.3407556,18.9465087 15.366762,19.2686748 15.5950405,19.4044757 C15.7395205,19.4767103 15.8348773,19.5662811 15.9620197,19.6529626 C16.2076357,19.8422171 16.4243557,20.0083565 16.654079,20.1860535 C16.813007,20.3001841 16.9401494,20.4648789 17.1250838,20.5428922 C17.4140438,20.6729144 17.6928903,20.8303857 18.0266391,20.847722 C18.3444951,20.8693924 18.4918647,21.1944479 18.764932,21.3316935 C18.8862952,21.4010387 19.0264408,21.422709 19.1535832,21.4776073 C18.7591528,21.6827534 18.3878391,21.8647845 17.9197239,21.9225721 M21.7311066,20.9488504 C21.5245002,20.8563902 21.309225,20.9098437 21.1011738,20.8679477 C20.6937401,20.7827109 20.2776377,20.7552618 19.8730937,20.64691 C19.5971368,20.5977905 19.3399624,20.487994 19.0741192,20.4042019 C18.8068312,20.3232992 18.5698839,20.1730513 18.3112647,20.0719229 C18.1913463,20.0285822 18.0569799,20.0098012 17.9471751,19.9462348 C17.3302454,19.622624 16.8014486,19.1617676 16.2957685,18.6893537 C16.2047461,18.5867806 16.1382853,18.4610925 16.0646005,18.3440725 C15.9331237,18.1504839 15.8666629,17.9106652 15.7164037,17.7416364 C15.4548948,17.4945942 15.1110324,17.285114 14.9058708,16.9745055 C14.7324948,16.691346 14.7556116,16.3157264 14.6400276,16.0166753 C14.5779012,15.8115292 14.3467331,15.662726 14.2629347,15.4561352 C14.1632435,15.1209669 14.1748019,14.7597942 14.0649971,14.433294 C13.9956467,14.2194797 14.1155651,13.9767716 14.0144291,13.7701808 C13.9551923,13.6300458 13.9234067,13.4899108 13.8930659,13.3468864 C13.9624163,13.2789859 13.9335203,13.2038619 13.8424979,13.1359615 C13.8381635,13.0810632 13.8323843,13.007384 13.6460051,13.0000755 C13.5954371,12.9987158 13.5636515,13.0160521 13.5188627,13.0247203 C13.111429,12.9727114 12.9987346,13.1518531 12.9481666,13.2703177 C12.8556994,13.4754639 12.909157,13.6907228 12.8672578,13.8987583 C12.7820146,14.3076059 12.7560082,14.7222322 12.6462034,15.1267457 C12.5970802,15.4026816 12.4872754,15.6598366 12.4034769,15.9271045 C12.3225681,16.1929276 12.1708641,16.4298569 12.0726177,16.6884566 C12.0292737,16.808366 12.0090465,16.9427222 11.9440305,17.0539635 C11.6218401,17.6694018 11.1609488,18.1981587 10.6884992,18.7038006 C10.5873632,18.7948161 10.4602208,18.8612719 10.3431919,18.9363958 C10.1495887,19.0678627 9.9097519,19.1328738 9.74215509,19.2845664 C9.49364946,19.5446107 9.28415344,19.8884472 8.97496621,20.095038 C8.69034059,20.2669562 8.31469255,20.2452859 8.01706372,20.3579718 C7.8104573,20.4200935 7.66164289,20.6526887 7.45503647,20.7364808 C7.11839803,20.8361645 6.7586428,20.824607 6.43211797,20.9329588 C6.21828755,21.0037486 5.97411632,20.8838393 5.7689547,20.9864124 C5.62880909,21.0456447 5.48866348,21.0759832 5.34562826,21.1063217 C5.27916746,21.0369765 5.20259305,21.0658704 5.13468744,21.1568859 C5.07978504,21.1626647 5.00610023,21.1669987 5.00032103,21.3533639 C4.99743143,21.4053727 5.01476903,21.4357113 5.02343783,21.4804967 C4.97142503,21.8878995 5.15202504,22.0005854 5.26905386,22.0511496 C5.47421548,22.1436098 5.6894907,22.0901563 5.89898672,22.133497 C6.30642036,22.2172891 6.721078,22.2447382 7.12562204,22.35309 C7.40302366,22.4022095 7.65875329,22.512006 7.92604131,22.5957981 C8.19188454,22.6767008 8.42883176,22.8269487 8.68745099,22.9266324 C8.8073694,22.9714178 8.94173581,22.9901988 9.05298542,23.0537652 C9.66847028,23.377376 10.1987119,23.8382324 10.7029472,24.3106463 C10.7939696,24.4132194 10.8618752,24.5389075 10.93556,24.6559275 C11.0670368,24.8495161 11.1334976,25.0893348 11.2837568,25.2583636 C11.5452657,25.5054058 11.8876833,25.714886 12.0942897,26.0254945 C12.2676657,26.308654 12.2445489,26.6842736 12.3572433,26.98188 C12.4193697,27.1884708 12.6519826,27.337274 12.7372258,27.5438648 C12.8354722,27.8804778 12.8239138,28.2402058 12.9337186,28.566706 C13.0045138,28.7805203 12.8845954,29.0246731 12.9857314,29.2298192 C13.0449682,29.3699542 13.0738642,29.5100892 13.1056498,29.6531136 C13.0377442,29.7195694 13.0651954,29.7961381 13.1562178,29.8640385 C13.161997,29.9189368 13.1663314,29.992616 13.3541554,29.9999245 C13.4032786,30.0012842 13.4350642,29.9839479 13.4784082,29.9752797 C13.8872867,30.0272886 13.9985363,29.8467022 14.0505491,29.7296823 C14.1430163,29.5245361 14.0910035,29.3092772 14.1329027,29.1012417 C14.2167011,28.6938388 14.2441523,28.2777678 14.3525123,27.8732543 C14.4016355,27.5973184 14.5128851,27.3401634 14.5952388,27.0728955 C14.6761476,26.8070724 14.8278516,26.5701431 14.9275428,26.3115434 C14.9708868,26.191634 14.9896692,26.0572778 15.0546852,25.9460365 C15.3768756,25.3305982 15.8377669,24.8018413 16.3102165,24.2961994 C16.4127973,24.2051839 16.5384949,24.1387281 16.6555238,24.0636042 C16.8505718,23.9321373 17.0889638,23.8671262 17.2565606,23.7154336 C17.506511,23.4553893 17.7145623,23.1115528 18.0237495,22.904962 C18.3083751,22.7330438 18.6840232,22.7547141 18.981652,22.6420282 C19.1882584,22.5799065 19.3370728,22.3473113 19.5436792,22.2635192 C19.8788729,22.1638355 20.2386281,22.175393 20.5665977,22.0670412 C20.7789834,21.9962514 21.0245994,22.1161607 21.229761,22.0135876 C21.3699066,21.9543553 21.5086074,21.9240168 21.6516426,21.8936783 C21.7195482,21.9630235 21.7961227,21.9355743 21.8640283,21.8431141 C21.9189307,21.8373353 21.9926155,21.8330013 21.9999245,21.6466361 C22.0012843,21.596072 21.9839467,21.5642887 21.9752779,21.520948 C22.0287355,21.1121005 21.8466907,20.9994146 21.7311066,20.9488504" id="Fill-7"></path>
                </g>
            </g>
        </g>
    </g>
</svg>