<?xml version="1.0" encoding="UTF-8"?>
<svg width="46px" height="50px" viewBox="0 0 46 50" version="1.1" xmlns="http://www.w3.org/2000/svg" xmlns:xlink="http://www.w3.org/1999/xlink">
    <title>icon-stars-plum</title>
    <g id="Welcome" stroke="none" stroke-width="1" fill="none" fill-rule="evenodd">
        <g id="Single-Pager" transform="translate(-233.000000, -7165.000000)" fill="#2A1048">
            <g id="icon-stars-plum" transform="translate(233.000000, 7165.000000)">
                <path d="M6.04128,11.7052 C5.67648,11.5564 5.32128,11.374 4.88928,11.398 C4.47888,11.4124 4.33248,10.9348 4.00368,10.7452 C3.99168,10.738 3.98208,10.738 3.97488,10.7332 C4.30368,10.57 4.64688,10.4404 5.07168,10.4332 C6.09168,10.414 6.26688,9.0556 7.07088,8.758 C7.35648,8.6356 7.81008,8.662 7.95888,8.3572 C8.03328,8.1628 8.14608,8.0476 8.24688,7.882 C8.44368,7.5748 8.68848,7.3132 8.89728,7.018 C9.03888,6.8212 9.25728,6.6724 9.34848,6.442 C9.49488,6.0748 9.67968,5.722 9.65568,5.2876 C9.63888,4.8772 10.11648,4.7332 10.30608,4.402 C10.31088,4.3924 10.31088,4.3828 10.31808,4.3732 C10.48368,4.7044 10.61088,5.0452 10.61808,5.47 C10.63968,6.49 11.99328,6.6628 12.29088,7.4668 C12.41568,7.7548 12.39168,8.2108 12.69408,8.3572 C12.89088,8.4316 13.00368,8.5444 13.17168,8.6452 C13.47648,8.842 13.74048,9.0868 14.03568,9.2956 C14.23008,9.4372 14.37888,9.6556 14.61168,9.7468 C14.97888,9.8956 15.32928,10.078 15.76368,10.0564 C16.17648,10.0372 16.32048,10.5148 16.64928,10.7068 C16.65888,10.7116 16.67088,10.7116 16.68048,10.7188 C16.34928,10.882 16.00608,11.0116 15.58368,11.0164 C14.56368,11.038 14.39088,12.394 13.58448,12.694 C13.29648,12.814 12.84048,12.7876 12.69408,13.0948 C12.62208,13.2868 12.50688,13.4044 12.40848,13.57 C12.20928,13.8772 11.96688,14.1388 11.75568,14.434 C11.61408,14.6308 11.39568,14.7772 11.30448,15.01 C11.15808,15.3772 10.97568,15.73 10.99728,16.162 C11.01408,16.5748 10.53648,16.7188 10.34688,17.05 C10.33968,17.0572 10.33968,17.0692 10.33488,17.0812 C10.17168,16.7476 10.03968,16.4068 10.03488,15.982 C10.01328,14.962 8.65728,14.7868 8.35968,13.9828 C8.23728,13.6972 8.26608,13.2412 7.95888,13.0948 C7.76448,13.0204 7.64928,12.9052 7.48608,12.8068 C7.17648,12.6076 6.91248,12.3652 6.61728,12.154 C6.42288,12.0124 6.27408,11.7964 6.04128,11.7052 M7.04448,14.71 C7.18848,14.9548 7.22688,15.2668 7.41408,15.4564 C7.74048,15.7348 8.22288,15.934 8.47968,16.3036 C8.69088,16.6396 8.58768,17.1244 8.71248,17.4796 C8.78448,17.7244 9.13008,17.8732 9.23808,18.1204 C9.36048,18.5188 9.29088,18.9604 9.44928,19.3444 C9.55008,19.5964 9.33168,19.8964 9.49008,20.1364 C9.58128,20.2924 9.62208,20.4508 9.67008,20.6116 C9.54048,20.6956 9.59088,20.7988 9.75888,20.8852 C9.76608,20.9524 9.77088,21.0436 10.08528,21.0509848 C10.16688,21.0532 10.21968,21.0316 10.29168,21.022 C10.97088,21.0844 11.15328,20.8684 11.23728,20.7316 C11.38368,20.4916 11.29248,20.2348 11.35248,19.9876 C11.46528,19.5076 11.47968,19.0132 11.60208,18.5332 C11.65728,18.2068 11.78448,17.902 11.87808,17.5852 C11.97168,17.266 12.15408,16.99 12.26688,16.678 C12.31488,16.534 12.31248,16.3612 12.38928,16.2292 C12.76848,15.4948 13.31568,14.8636 13.88208,14.2636 C14.00208,14.1556 14.16528,14.086 14.30928,14.0068 C14.55408,13.8652 14.86848,13.8268 15.05808,13.6372 C15.33648,13.3132 15.53568,12.8284 15.90288,12.574 C16.23888,12.3604 16.72368,12.4636 17.08128,12.3388 C17.32608,12.2692 17.47488,11.9212 17.72208,11.8156 C18.12048,11.6932 18.56448,11.7604 18.94608,11.6044 C19.19568,11.5012 19.49568,11.7196 19.73808,11.5612 C19.89168,11.4724 20.05008,11.4292 20.21088,11.3836 C20.29248,11.5132 20.39568,11.458 20.48688,11.2948 C20.55168,11.2876 20.64048,11.2828 20.6526477,10.9684 C20.65488,10.8844 20.63088,10.8316 20.62128,10.7572 C20.68608,10.0804 20.46768,9.898 20.33088,9.8164 C20.09088,9.67 19.83408,9.7564 19.58928,9.7012 C19.10688,9.5884 18.61488,9.574 18.13488,9.4492 C17.80608,9.3964 17.50128,9.2692 17.18688,9.1732 C16.87008,9.082 16.58928,8.8996 16.27968,8.7868 C16.13568,8.7364 15.96288,8.7388 15.82848,8.6644 C15.09408,8.2828 14.46288,7.7356 13.86528,7.1716 C13.75488,7.0492 13.69008,6.8884 13.60848,6.742 C13.46688,6.4996 13.42608,6.1852 13.23648,5.9956 C12.91248,5.7172 12.43008,5.518 12.17808,5.1508 C11.96448,4.8124 12.06528,4.3276 11.93808,3.9724 C11.87328,3.7276 11.52288,3.5788 11.41488,3.3316 C11.29248,2.9308 11.36208,2.4892 11.20368,2.1076 C11.10048,1.8556 11.31888,1.5556 11.16288,1.3156 C11.07168,1.1596 11.02848,1.0012 10.98288,0.8428 C11.11488,0.7564 11.05968,0.6556 10.89408,0.5644 C10.88688,0.502 10.88448,0.4084 10.56768,0.401015226 C10.48368,0.3988 10.43328,0.4204 10.35888,0.43 C9.68208,0.3652 9.49968,0.5836 9.41568,0.7204 C9.27168,0.9604 9.36048,1.2172 9.30048,1.462 C9.19008,1.9444 9.17568,2.4364 9.05088,2.9164 C8.99568,3.2452 8.87088,3.55 8.77488,3.8668 C8.68368,4.1836 8.49888,4.462 8.38848,4.774 C8.33808,4.9156 8.34048,5.0908 8.26608,5.2228 C7.88688,5.9572 7.33728,6.5884 6.77328,7.1884 C6.64848,7.2964 6.49008,7.3636 6.34368,7.4452 C6.09888,7.5868 5.78688,7.6252 5.59488,7.8148 C5.31648,8.1388 5.11728,8.6236 4.75008,8.8756 C4.41168,9.0892 3.92688,8.9884 3.57408,9.1132 C3.32688,9.1804 3.18048,9.5308 2.93088,9.6364 C2.53248,9.7588 2.09088,9.6892 1.70688,9.8476 C1.45728,9.9508 1.15728,9.7324 0.91488,9.8908 C0.76128,9.9796 0.60048,10.0228 0.44208,10.0684 C0.35808,9.9388 0.25488,9.994 0.16608,10.1572 C0.09888,10.1644 0.00768,10.1692 0.00048,10.4836 C-0.00432,10.5676 0.01968,10.6204 0.03168,10.6972 C-0.03312,11.3716 0.18528,11.554 0.31968,11.6356 C0.56208,11.782 0.81648,11.6932 1.06368,11.7508 C1.54368,11.8636 2.03808,11.878 2.51808,12.0028 C2.84688,12.0556 3.15168,12.1828 3.46848,12.2788 C3.78528,12.37 4.06368,12.5548 4.37568,12.6652 C4.51728,12.7132 4.69248,12.7108 4.82208,12.7876 C5.55888,13.1668 6.19008,13.7164 6.79008,14.2804 C6.89808,14.4028 6.96768,14.5636 7.04448,14.71" id="Fill-1"></path>
                <path d="M41.6544,25.22512 C41.4624,25.26352 41.1,25.15072 41.0472,25.37152 C41.0232,25.50832 40.956,25.57552 40.9056,25.68352 C40.812,25.88512 40.6608,26.03152 40.5384,26.20672 C40.4544,26.32192 40.3032,26.39392 40.2576,26.53792 C40.2192,26.66752 40.1856,26.79712 40.1664,26.93152 C40.0776,26.43712 39.1848,26.45872 39.1176,25.97872 C39.084,25.78672 39.1944,25.42432 38.9736,25.37152 C38.8368,25.34752 38.7696,25.28032 38.6616,25.23232 C38.46,25.13632 38.3112,24.98512 38.1384,24.86272 C38.0208,24.77632 37.9488,24.62512 37.8048,24.58432 C37.6776,24.54352 37.548,24.50992 37.4112,24.49312 C37.9056,24.40192 37.8864,23.50912 38.364,23.44432 C38.5584,23.40592 38.9208,23.51872 38.9736,23.29792 C38.9976,23.16112 39.0648,23.09392 39.1128,22.98592 C39.2064,22.78432 39.3576,22.63552 39.4848,22.46272 C39.5664,22.34752 39.7176,22.27552 39.7608,22.12912 C39.8016,22.00192 39.8352,21.87232 39.8496,21.73552 C39.9408,22.23232 40.836,22.21072 40.9008,22.68832 C40.9392,22.88272 40.8264,23.24512 41.0472,23.29792 C41.184,23.32192 41.2512,23.38912 41.3592,23.43712 C41.5608,23.53072 41.7072,23.68192 41.8824,23.80672 C41.9976,23.89072 42.0696,24.04192 42.2136,24.08512 C42.3432,24.12592 42.4704,24.15952 42.6072,24.17632 C42.1104,24.26752 42.132,25.16032 41.6544,25.22512 M45.624,23.43232 C45.5016,23.29312 45.3672,23.38192 45.2424,23.34112 C45,23.26192 44.7408,23.28352 44.4888,23.22832 C44.3184,23.20672 44.1576,23.14672 43.9944,23.10352 C43.824,23.06032 43.6848,22.95952 43.5168,22.91152 C43.44,22.89232 43.3272,22.93552 43.2576,22.89712 C42.8664,22.70272 42.5328,22.41472 42.2184,22.11712 C42.1632,22.04992 42.1464,21.94672 42.12,21.85792 C42.0696,21.70912 42.1128,21.49552 42.0024,21.41392 C41.8056,21.29632 41.424,21.27472 41.2776,21.08272 C41.1528,20.90752 41.3328,20.58832 41.2824,20.40352 C41.256,20.27392 40.9488,20.24272 40.8864,20.11072 C40.812,19.89952 40.9416,19.64512 40.812,19.45552 C40.728,19.32592 40.9704,19.15072 40.824,19.03312 C40.7448,18.96592 40.7136,18.88912 40.6728,18.81712 C40.8096,18.76912 40.7496,18.70432 40.5792,18.65152 C40.5696,18.61552 40.5888,18.56032 40.2528,18.55552 C40.1664,18.55312 40.1112,18.56752 40.0392,18.57232 C39.3648,18.53632 39.1872,18.65392 39.1056,18.72112 C38.9712,18.84352 39.0576,18.97552 39.0144,19.10272 C38.9352,19.34512 38.9616,19.60432 38.904,19.85392 C38.8824,20.02432 38.8224,20.18512 38.7792,20.35312 C38.7336,20.51872 38.6352,20.66032 38.5896,20.82592 C38.568,20.90272 38.6088,21.01792 38.5704,21.08752 C38.3808,21.47872 38.0904,21.81232 37.7928,22.12432 C37.7256,22.18192 37.6224,22.19632 37.5336,22.22512 C37.3848,22.27552 37.1736,22.22992 37.0896,22.34512 C36.972,22.53712 36.9504,22.91872 36.7584,23.06752 C36.5832,23.19232 36.264,23.01232 36.0792,23.06272 C35.9496,23.08912 35.916,23.39392 35.7864,23.45872 C35.5752,23.53312 35.3208,23.40112 35.1288,23.53312 C35.0016,23.61712 34.8264,23.37472 34.7088,23.52112 C34.6392,23.59792 34.5648,23.62912 34.4904,23.66992 C34.4424,23.53552 34.38,23.59552 34.3272,23.76592 C34.2936,23.77312 34.236,23.75392 34.2312,24.09232 C34.2288,24.17632 34.2432,24.22912 34.248,24.30352 C34.2096,24.98032 34.3272,25.15792 34.3968,25.23472 C34.5168,25.37392 34.6512,25.28752 34.7784,25.32832 C35.0208,25.40752 35.28,25.38352 35.5296,25.44112 C35.7024,25.46272 35.8608,25.52272 36.0288,25.56592 C36.1944,25.60912 36.336,25.70992 36.504,25.75792 C36.5784,25.77712 36.6936,25.73392 36.7632,25.77232 C37.1544,25.96672 37.4856,26.25472 37.8024,26.55232 C37.8576,26.61712 37.872,26.72272 37.9008,26.81152 C37.9512,26.96032 37.9056,27.17392 38.0208,27.25552 C38.2128,27.37312 38.5968,27.39472 38.7432,27.58672 C38.868,27.76192 38.688,28.07872 38.7384,28.26592 C38.7648,28.39552 39.0696,28.42672 39.132,28.55872 C39.2064,28.76992 39.0768,29.02432 39.2088,29.21392 C39.2952,29.34352 39.0528,29.51872 39.1968,29.63392 C39.2712,29.70352 39.3048,29.78032 39.3432,29.85472 C39.2112,29.90272 39.2712,29.96512 39.4416,30.01792 C39.4488,30.05152 39.4296,30.10912 39.768,30.11392 C39.8496,30.11632 39.9048,30.10192 39.9792,30.09712 C40.6536,30.13312 40.8312,30.01552 40.9104,29.94832 C41.0496,29.82592 40.9632,29.69152 41.004,29.56672 C41.0832,29.32432 41.0616,29.06512 41.1168,28.81312 C41.136,28.64272 41.1984,28.48192 41.2416,28.31632 C41.2848,28.15072 41.3856,28.00912 41.4312,27.84112 C41.4528,27.76672 41.4096,27.65152 41.448,27.57952 C41.6424,27.19072 41.9304,26.85712 42.228,26.54272 C42.2952,26.48752 42.3984,26.47312 42.4872,26.44432 C42.6336,26.39392 42.8472,26.43712 42.9288,26.32432 C43.0488,26.12992 43.0704,25.74832 43.2624,25.60192 C43.4376,25.47712 43.7568,25.65712 43.9416,25.60672 C44.0712,25.58032 44.1048,25.27552 44.232,25.21072 C44.4456,25.13632 44.7,25.26832 44.892,25.13632 C45.0168,25.05232 45.1944,25.29232 45.3096,25.14832 C45.3792,25.07152 45.456,25.04032 45.528,24.99952 C45.5784,25.13152 45.6384,25.07392 45.6936,24.90352 C45.7272,24.89632 45.7848,24.91552 45.7896,24.57712 C45.792,24.49312 45.7776,24.44032 45.7728,24.36832 C45.8088,23.68912 45.6912,23.51152 45.624,23.43232" id="Fill-4"></path>
                <path d="M27.99504,36.26776 C26.71104,36.41656 26.28864,37.94536 25.25664,38.43016 C24.89424,38.62216 24.35904,38.66776 24.13344,39.04456 C24.01584,39.28696 23.86464,39.44536 23.72304,39.65656 C23.40864,40.06696 23.13024,40.42456 22.83744,40.80616 C22.64544,41.07016 22.37184,41.28136 22.24224,41.58616 C22.02864,42.06856 21.76224,42.52936 21.73584,43.08616 C21.69984,43.61416 21.15984,43.85896 20.93424,44.31256 C20.81664,44.51416 20.77824,44.74696 20.68944,44.96056 C20.34864,44.30296 20.04384,43.68616 19.95024,42.90856 C19.80144,41.62216 18.27264,41.20216 17.78784,40.17016 C17.59344,39.80776 17.55024,39.27256 17.17344,39.04696 C16.93104,38.92696 16.77264,38.77816 16.56144,38.63416 C16.15104,38.31976 15.79344,38.04376 15.41424,37.74856 C15.14784,37.55896 14.93904,37.28536 14.63184,37.15576 C14.14944,36.93976 13.68864,36.67816 13.13424,36.64936 C12.60384,36.61336 12.35904,36.07336 11.90784,35.84536 C11.70624,35.73016 11.47104,35.69416 11.25504,35.60296 C11.91504,35.26216 12.53184,34.95976 13.31184,34.86376 C14.59584,34.71496 15.01824,33.18616 16.04784,32.70136 C16.41264,32.50696 16.94544,32.46376 17.17344,32.08696 C17.28864,31.84456 17.44224,31.68616 17.58144,31.47496 C17.89824,31.06696 18.17424,30.70696 18.46944,30.32536 C18.65904,30.06136 18.93264,29.85016 19.06224,29.54536 C19.27824,29.06296 19.54224,28.60216 19.56864,28.04536 C19.60464,27.51736 20.14464,27.27256 20.37264,26.81896 C20.48784,26.61736 20.52624,26.38456 20.61504,26.17096 C20.95344,26.82856 21.25824,27.44536 21.35424,28.22296 C21.50544,29.50936 23.03184,29.92936 23.51904,30.96136 C23.71104,31.32376 23.75424,31.85896 24.13344,32.08456 C24.37344,32.20456 24.53184,32.35336 24.74304,32.49736 C25.15104,32.81176 25.51104,33.08776 25.89264,33.38296 C26.15664,33.57256 26.36784,33.84616 26.67504,33.97576 C27.15504,34.19176 27.61824,34.45336 28.17264,34.48216 C28.70064,34.51816 28.94544,35.05816 29.39904,35.28616 C29.60064,35.40136 29.83344,35.43736 30.04464,35.52856 C29.38944,35.86936 28.77264,36.17176 27.99504,36.26776 M34.32624,34.65016 C33.98304,34.49656 33.62544,34.58536 33.27984,34.51576 C32.60304,34.37416 31.91184,34.32856 31.23984,34.14856 C30.78144,34.06696 30.35424,33.88456 29.91264,33.74536 C29.46864,33.61096 29.07504,33.36136 28.64544,33.19336 C28.44624,33.12136 28.22304,33.09016 28.04064,32.98456 C27.01584,32.44696 26.13744,31.68136 25.29744,30.89656 C25.14624,30.72616 25.03584,30.51736 24.91344,30.32296 C24.69504,30.00136 24.58464,29.60296 24.33504,29.32216 C23.90064,28.91176 23.32944,28.56376 22.98864,28.04776 C22.70064,27.57736 22.73904,26.95336 22.54704,26.45656 C22.44384,26.11576 22.05984,25.86856 21.92064,25.52536 C21.75504,24.96856 21.77424,24.36856 21.59184,23.82616 C21.47664,23.47096 21.67584,23.06776 21.50784,22.72456 C21.40944,22.49176 21.35664,22.25896 21.30624,22.02136 C21.42144,21.90856 21.37344,21.78376 21.22224,21.67096 C21.21504,21.57976 21.20544,21.45736 20.89584,21.4452188 C20.81184,21.44296 20.75904,21.47176 20.68464,21.48616 C20.00784,21.39976 19.82064,21.69736 19.73664,21.89416 C19.58304,22.23496 19.67184,22.59256 19.60224,22.93816 C19.46064,23.61736 19.41744,24.30616 19.23504,24.97816 C19.15344,25.43656 18.97104,25.86376 18.83184,26.30776 C18.69744,26.74936 18.44544,27.14296 18.28224,27.57256 C18.21024,27.77176 18.17664,27.99496 18.06864,28.17976 C17.53344,29.20216 16.76784,30.08056 15.98304,30.92056 C15.81504,31.07176 15.60384,31.18216 15.40944,31.30696 C15.08784,31.52536 14.68944,31.63336 14.41104,31.88536 C13.99824,32.31736 13.65024,32.88856 13.13664,33.23176 C12.66384,33.51736 12.03984,33.48136 11.54544,33.66856 C11.20224,33.77176 10.95504,34.15816 10.61184,34.29736 C10.05264,34.46296 9.45504,34.44376 8.91264,34.62376 C8.55744,34.74136 8.15184,34.54216 7.81104,34.71256 C7.57824,34.81096 7.34544,34.86136 7.10784,34.91176 C6.99744,34.79656 6.87024,34.84456 6.75744,34.99576 C6.66624,35.00536 6.54384,35.01256 6.53424,35.32216 C6.52944,35.40856 6.55824,35.45896 6.57264,35.53336 C6.48624,36.21016 6.78624,36.39736 6.98064,36.48136 C7.32144,36.63496 7.67904,36.54616 8.02704,36.61816 C8.70384,36.75736 9.39264,36.80296 10.06464,36.98296 C10.52544,37.06456 10.95024,37.24696 11.39424,37.38616 C11.83584,37.52056 12.22944,37.77016 12.65904,37.93576 C12.85824,38.01016 13.08144,38.04136 13.26624,38.14696 C14.28864,38.68456 15.16944,39.45016 16.00704,40.23496 C16.15824,40.40536 16.27104,40.61416 16.39344,40.80856 C16.61184,41.13016 16.72224,41.52856 16.97184,41.80936 C17.40624,42.21976 17.97504,42.56776 18.31824,43.08376 C18.60624,43.55416 18.56784,44.17816 18.75504,44.67256 C18.85824,45.01576 19.24464,45.26296 19.38624,45.60616 C19.54944,46.16536 19.53024,46.76296 19.71264,47.30536 C19.83024,47.66056 19.63104,48.06616 19.79904,48.40696 C19.89744,48.63976 19.94544,48.87256 19.99824,49.11016 C19.88544,49.22056 19.93104,49.34776 20.08224,49.46056 C20.09184,49.55176 20.09904,49.67416 20.41104,49.6863012 C20.49264,49.68856 20.54544,49.65976 20.61744,49.64536 C21.29664,49.73176 21.48144,49.43176 21.56784,49.23736 C21.72144,48.89656 21.63504,48.53896 21.70464,48.19336 C21.84384,47.51656 21.88944,46.82536 22.06944,46.15336 C22.15104,45.69496 22.33584,45.26776 22.47264,44.82376 C22.60704,44.38216 22.85904,43.98856 23.02464,43.55896 C23.09664,43.35976 23.12784,43.13656 23.23584,42.95176 C23.77104,41.92936 24.53664,41.05096 25.32144,40.21096 C25.49184,40.05976 25.70064,39.94936 25.89504,39.82456 C26.21904,39.60616 26.61504,39.49816 26.89344,39.24616 C27.30864,38.81416 27.65424,38.24296 28.16784,37.89976 C28.64064,37.61416 29.26464,37.65016 29.75904,37.46296 C30.10224,37.35976 30.34944,36.97336 30.69264,36.83416 C31.24944,36.66856 31.84704,36.68776 32.39184,36.50776 C32.74464,36.39016 33.15264,36.58936 33.49344,36.41896 C33.72624,36.32056 33.95664,36.27016 34.19424,36.21976 C34.30704,36.33496 34.43424,36.28936 34.54704,36.13576 C34.63824,36.12616 34.76064,36.11896 34.7727812,35.80936 C34.77504,35.72536 34.74624,35.67256 34.73184,35.60056 C34.82064,34.92136 34.51824,34.73416 34.32624,34.65016" id="Fill-7"></path>
            </g>
        </g>
    </g>
</svg>