<?xml version="1.0" encoding="UTF-8"?>
<svg width="41px" height="40px" viewBox="0 0 41 40" version="1.1" xmlns="http://www.w3.org/2000/svg" xmlns:xlink="http://www.w3.org/1999/xlink">
    <title>icon-podcasts-spotify</title>
    <g id="Welcome" stroke="none" stroke-width="1" fill="none" fill-rule="evenodd">
        <g id="Podcast-Landing-Page-" transform="translate(-569.000000, -3931.000000)" fill="#BB8472">
            <path d="M599.079578,3959.18589 C599.079578,3958.45104 598.781613,3958.17002 598.280039,3957.85509 C592.375363,3954.41018 585.457607,3954.28259 578.688832,3955.74099 C578.068072,3955.87019 577.563186,3956.26588 577.563186,3957.09763 C577.563186,3957.75173 578.068072,3958.37191 578.869267,3958.37191 C579.109294,3958.37191 579.529756,3958.2427 579.852552,3958.16033 C585.780402,3956.9765 591.781089,3957.10571 596.939196,3960.13716 C597.260336,3960.32289 597.477188,3960.42787 597.824814,3960.42787 C598.49358,3960.42787 599.079578,3959.92074 599.079578,3959.18589 M601.650355,3953.5639 C601.650355,3952.86296 601.385497,3952.3623 600.716731,3951.9763 C596.632954,3949.6054 591.451672,3948.3069 586.086644,3948.3069 C582.648458,3948.3069 580.301155,3948.77365 578.001857,3949.40352 C577.151001,3949.6377 576.720607,3950.21105 576.720607,3951.07348 C576.720607,3951.93592 577.44069,3952.63686 578.322997,3952.63686 C578.695454,3952.63686 578.910651,3952.53188 579.307938,3952.42851 C586.161135,3950.61319 593.863534,3951.81479 599.029918,3954.79941 C599.327883,3954.95123 599.617571,3955.13696 600.047965,3955.13696 C600.948482,3955.13696 601.642078,3954.43602 601.650355,3953.5639 M604.527374,3947.11176 C604.527374,3946.15242 604.106912,3945.65498 603.459666,3945.28998 C598.839551,3942.66229 592.517724,3941.43485 586.482276,3941.43485 C582.936491,3941.43485 579.680394,3941.82893 576.770268,3942.66229 C576.027011,3942.87063 575.331759,3943.49243 575.331759,3944.58905 C575.331759,3945.65983 576.167716,3946.4932 577.256944,3946.4932 C577.655887,3946.4932 578.026688,3946.36399 578.322997,3946.28162 C585.136466,3944.42754 595.657946,3945.25122 601.544412,3948.67836 C601.915213,3948.8867 602.180071,3948.99168 602.610465,3948.99168 C603.616925,3948.99168 604.527374,3948.21 604.527374,3947.11176 M610,3951.00081 C610,3962.0413 600.816053,3971 589.5,3971 C578.183947,3971 569,3962.0413 569,3951.00081 C569,3939.96031 578.183947,3931 589.5,3931 C600.816053,3931 610,3939.96031 610,3951.00081" id="icon-podcasts-spotify"></path>
        </g>
    </g>
</svg>