<?xml version="1.0" encoding="UTF-8"?>
<svg width="15px" height="16px" viewBox="0 0 15 16" version="1.1" xmlns="http://www.w3.org/2000/svg" xmlns:xlink="http://www.w3.org/1999/xlink">
    <title>icon-download</title>
    <g id="Welcome" stroke="none" stroke-width="1" fill="none" fill-rule="evenodd" stroke-linejoin="round">
        <g id="Episode-Page" transform="translate(-632.000000, -2153.000000)" fill="#2A1048" stroke="#2A1048" stroke-width="0.5">
            <g id="icon-download" transform="translate(632.000000, 2154.000000)">
                <path d="M4,6.96116848 L7.28201013,10.301939 C7.5401692,10.5659279 7.9598308,10.5659265 8.21853969,10.3024974 L11.5,6.96116704 L10.562908,6.00697781 L8.41412518,8.19496503 L8.41300024,0 L7.08702929,0 L7.08646682,8.1943923 L4.93768403,6.00640508 L4.00059341,6.96171257 L4,6.96116848 Z" id="Fill-2"></path>
                <path d="M1.75247378,9.52482143 L1.75245932,12.7318481 L13.0318563,12.7318481 L13.0319015,9.58605517 L14.1421876,9.58605517 L14.1421876,13.3784172 C14.1421876,13.7226664 13.9110779,14.0040634 13.6196634,14.0237241 L13.5870446,14.0248214 L1.19733071,14.0248214 C0.901683551,14.0248214 0.660014968,13.7557191 0.643130028,13.4163984 L0.642187637,13.3784172 L0.642187637,9.52482143 L1.75247378,9.52482143 Z" id="Path-2" fill-rule="nonzero"></path>
            </g>
        </g>
    </g>
</svg>