<?xml version="1.0" encoding="UTF-8"?>
<svg width="20px" height="16px" viewBox="0 0 20 16" version="1.1" xmlns="http://www.w3.org/2000/svg" xmlns:xlink="http://www.w3.org/1999/xlink">
    <title>icon-twitter</title>
    <g id="Welcome" stroke="none" stroke-width="1" fill="none" fill-rule="evenodd">
        <g id="Blog-Post" transform="translate(-499.000000, -2196.000000)" fill="#BB8472">
            <g id="Group-13" transform="translate(472.000000, 2194.000000)">
                <path d="M44.9566667,6.51256797 C44.9566667,11.8491844 40.8316667,18 33.2933333,18 C30.97,18 28.8133333,17.3368216 27,16.1877501 C27.33,16.2255053 27.6466667,16.236996 27.9883333,16.236996 C29.905,16.236996 31.6683333,15.6000821 33.0783333,14.5117472 C31.2766667,14.4756335 29.7666667,13.3117882 29.245,11.7112958 C29.5,11.749051 29.7533333,11.7753155 30.02,11.7753155 C30.3883333,11.7753155 30.755,11.724428 31.0983333,11.6374269 C29.22,11.2631579 27.8116667,9.63804247 27.8116667,7.67477172 L27.8116667,7.6255258 C28.3566667,7.9242844 28.9916667,8.11306043 29.6633333,8.13768339 C28.56,7.41212681 27.8383333,6.17441264 27.8383333,4.77582846 C27.8383333,4.02564892 28.04,3.33784754 28.395,2.73868883 C30.4116667,5.18785267 33.4466667,6.7867036 36.8466667,6.96234739 C36.7833333,6.66194727 36.745,6.35005643 36.745,6.03816559 C36.745,3.81224992 38.5733333,2 40.8433333,2 C42.025,2 43.09,2.48753463 43.84,3.27546938 C44.7666667,3.09982559 45.6533333,2.76331179 46.4416667,2.30040012 C46.1366667,3.23771417 45.4883333,4.02564892 44.64,4.52631579 C45.465,4.43767313 46.2633333,4.21278342 47,3.90089258 C46.4416667,4.70031805 45.7433333,5.41274238 44.9433333,5.98727814 C44.9566667,6.16292192 44.9566667,6.33856571 44.9566667,6.51256797" id="icon-twitter"></path>
            </g>
        </g>
    </g>
</svg>