<?xml version="1.0" encoding="UTF-8"?>
<svg width="30px" height="38px" viewBox="0 0 30 38" version="1.1" xmlns="http://www.w3.org/2000/svg" xmlns:xlink="http://www.w3.org/1999/xlink">
    <title>icon-moon-adobe</title>
    <g id="Welcome" stroke="none" stroke-width="1" fill="none" fill-rule="evenodd">
        <g id="Mobile-Navigation" transform="translate(-145.000000, -484.000000)" fill="#BB8472">
            <g id="icon-moon-adobe" transform="translate(145.000000, 484.000000)">
                <path d="M21.1282714,35.0153746 C21.1961811,35.4595172 21.0694163,35.9146262 21.0965802,36.3514578 C21.1291769,36.7270599 21.102013,37.0852984 21.0304814,37.4563311 L20.9996957,37.5979815 C20.9779646,37.7030769 20.8937566,37.8858517 21.0884311,37.9690142 C21.1889374,38.0119662 21.3012148,37.9973443 21.3799901,37.9525645 C21.8372487,37.6930243 21.9459043,37.051485 21.9603917,36.5945482 C21.9957047,36.0041859 22.0310178,35.4010293 21.9540534,34.8106669 C21.8526416,34.0037165 21.7349314,33.153814 21.3274732,32.4281983 C20.8693091,31.627645 20.3359915,30.9431537 19.7927139,30.174586 C18.8899675,28.9390288 17.2655674,28.7791009 15.9843377,28.3440971 C15.5125916,28.1914802 15.0136816,27.9438204 14.4885132,28.0114471 C14.1770341,28.0754182 13.9081116,28.0717627 13.6038761,28.1311645 C13.0225691,28.2545375 12.4367347,28.3596329 11.8825915,28.5771349 C11.5041081,28.7032494 11.1274356,28.8549524 10.7815488,29.060574 C10.2427985,29.4105876 9.73483391,29.8264001 9.3681215,30.3454803 C9.01680196,30.8417137 8.51336469,31.1341533 8.13850312,31.6322144 C7.69392092,32.1997299 7.40598377,32.8823935 7.20406558,33.5741959 C6.98947092,34.3272277 6.98041629,35.1149868 7.01572933,35.8771574 C7.05919155,36.4263955 7.37791443,36.8513467 7.16694161,37.3978432 C7.07911173,37.6290532 7.22941854,37.9233205 7.50105736,37.9799807 C8.17834348,38.1060952 8.11586655,37.6062063 8.10319007,37.3238194 C8.07874258,36.8988682 7.9664652,36.4857973 7.96012696,36.0626738 C7.96465427,35.2301349 8.02894213,34.3884573 8.29243178,33.5915595 C8.45360415,33.0560295 8.71256649,32.5561406 9.00231456,32.0781847 C9.3146992,31.620334 9.66420781,31.1816747 10.0752879,30.8079004 C10.2500422,30.6242118 10.4184583,30.4286428 10.6221874,30.2732843 C11.7404338,29.4444009 13.1212645,29.0121387 14.5075279,29.0121387 C14.7809777,29.0358994 15.0553329,29.0596601 15.319728,29.1300284 C15.7733648,29.2314684 16.1916886,29.429779 16.620878,29.5549796 C17.2990695,29.7377544 18.039738,29.921443 18.6319107,30.376552 C19.1561736,30.7859674 19.5047767,31.3754159 19.8461362,31.9182569 C20.0833674,32.2764953 20.4419307,32.5780736 20.6338888,32.9856613 C20.9236368,33.630856 20.9906411,34.3381942 21.1282714,35.0153746" id="Fill-5"></path>
                <path d="M1.18878274,2.90543348 L1.23732318,2.65932447 L1.26846232,2.53535845 C1.28128432,2.52350876 1.29593804,2.58549177 1.30876004,2.61101418 L1.43881178,2.94827468 L1.67510295,3.4714842 C1.97184071,4.03753492 2.26949432,4.60814322 2.63583723,5.13591031 C3.34745833,6.2032942 4.19096288,7.19319933 5.18283631,8.00444754 C6.4284022,9.04722053 7.81867354,10.0763208 9.37379919,10.6150261 C10.6779799,11.0798986 11.9583484,11.3487955 13.3193123,11.4800537 L13.841351,11.5310985 C14.2287586,11.5420367 14.957781,11.593993 15.0118166,11.3843446 C15.041124,11.2758743 14.8707745,11.1646695 14.6528005,11.0944829 C13.4026553,10.7444612 11.5260638,10.4491304 10.1779219,9.96693901 C8.43870891,9.3771889 6.83504283,8.35720379 5.48598506,7.12210117 C4.54265207,6.27530387 3.73120253,5.27992966 3.08369144,4.19705002 L2.62484694,3.36939454 C2.44259135,3.05127585 2.42061077,2.93551347 2.11196687,2.29563005 C1.87018055,1.65756965 1.66411266,1.20272374 1.45254963,0.743320259 L1.13657888,0.0514804889 C1.1081873,-0.0551667484 1.08712258,0.0250465583 1.06697372,0.101613806 L1.00377957,0.302147072 L0.881054696,0.696833001 C0.0311391473,3.38853635 0.0439611491,4.43495539 0,5.97541549 C0.0247281464,7.44568894 0.204236172,8.9104933 0.552261935,10.3853243 C1.13108373,12.6595539 2.47281464,14.7268695 4.17172988,16.3448084 C5.87064512,17.9846236 7.95513627,19.1285747 10.1156436,19.9799296 C11.6432935,20.5696797 13.3000793,21.0527826 15.0145641,20.9953572 C16.0384926,20.922436 16.9177155,20.8540724 17.9178317,20.6471585 C19.8246465,20.2333307 21.6700989,19.4959152 23.3012407,18.4221507 C24.3782889,17.6728855 25.455337,16.8762216 26.2915147,15.8535019 C27.6698799,14.2647315 28.7121255,12.3569309 29.2213421,10.3616249 C29.7094941,8.42921346 30.0895748,6.61165285 29.9815037,4.59720504 C29.9641024,4.30460877 29.9320474,4.01383553 29.8944972,3.72215078 L29.8294714,3.28826972 L29.7204844,2.72039596 C29.5025103,1.74416356 29.2121836,0.844498407 28.91453,0.020488984 C28.5381126,0.823533565 28.2047406,1.61381694 27.7559705,2.64838629 C27.4812133,3.27459699 27.2293526,3.65469868 26.9463527,4.16058942 C25.6833855,6.15224937 23.9817227,7.91147303 21.8953998,9.09006172 C20.4620832,9.92409781 19.0095336,10.6906818 17.415026,10.6332564 C16.7629357,10.6049994 15.8260137,10.7572224 15.3836546,10.9978623 C14.251655,11.6204269 15.9752984,11.748039 17.0605893,11.625896 C18.6505175,11.4919033 20.2276237,10.9668708 21.6719306,10.2741195 C24.5495542,8.90502421 26.925288,6.55605045 28.3952389,3.75223077 C28.4941515,3.57721992 28.6901449,3.13695825 28.6571741,3.21079095 L28.6901449,3.12602007 C28.7102938,3.04489525 28.7341061,2.99840799 28.7515074,3.09958614 L28.7780672,3.1889146 L28.8522517,3.56172417 C28.940174,4.04300401 28.997873,4.52975294 29.0335914,5.01741338 C29.132504,6.95985152 28.8705688,8.92598905 28.1992454,10.7563109 C28.0636986,11.1792538 27.9043394,11.5930815 27.7120094,11.9950595 C27.5444075,12.4079758 27.3493299,12.8081308 27.1029643,13.1818519 C24.6393082,17.3894044 19.8273941,20.0437357 14.9467907,19.9936023 C13.9805613,19.973549 13.0244063,19.8413794 12.0884001,19.6299079 C10.5012195,19.2589214 9.03126857,18.5360901 7.66023023,17.7221073 C5.48323749,16.4623938 3.56085308,14.633895 2.36382762,12.360577 C1.31150761,10.3133147 0.92684756,7.98895179 0.982714854,5.73112951 C0.998284427,4.97183764 1.03491872,4.21163426 1.13108373,3.44960784 L1.18878274,2.90543348" id="Fill-10"></path>
            </g>
        </g>
    </g>
</svg>