<?xml version="1.0" encoding="UTF-8"?>
<svg width="22px" height="16px" viewBox="0 0 22 16" version="1.1" xmlns="http://www.w3.org/2000/svg" xmlns:xlink="http://www.w3.org/1999/xlink">
    <title>icon-email</title>
    <g id="Welcome" stroke="none" stroke-width="1" fill="none" fill-rule="evenodd">
        <g id="Blog-Post" transform="translate(-546.000000, -2197.000000)" fill="#BB8472">
            <g id="Group" transform="translate(449.000000, 2194.000000)">
                <path d="M97,3 L97,18.1724138 L118.998758,18.1724138 L119,3 L97,3 Z M108,10.8386759 L101.788469,5.52833103 L114.27582,5.52833103 L108,10.8386759 Z M103.341352,10.2068966 L99.5889661,13.8731586 L99.5889661,7.04557241 L103.341352,10.2068966 Z M105.282455,11.8509793 L107.159269,13.4310345 C107.417669,13.6206897 107.677311,13.747531 108,13.747531 C108.323931,13.747531 108.582331,13.6206897 108.840731,13.4310345 L110.523434,11.9766069 L114.27582,15.642869 L101.400248,15.6440828 L105.282455,11.8509793 Z M112.528827,10.3337379 L116.411034,7.04678621 L116.411034,14.190869 L112.528827,10.3337379 Z" id="icon-email"></path>
            </g>
        </g>
    </g>
</svg>