<?xml version="1.0" encoding="UTF-8"?>
<svg width="12px" height="12px" viewBox="0 0 12 12" version="1.1" xmlns="http://www.w3.org/2000/svg" xmlns:xlink="http://www.w3.org/1999/xlink">
    <title>icon-star-plum-small</title>
    <g id="Welcome" stroke="none" stroke-width="1" fill="none" fill-rule="evenodd">
        <g id="Programs" transform="translate(-637.000000, -47.000000)" fill="#2A1048">
            <path d="M644.706732,53.9243758 C644.507405,53.9642411 644.131177,53.8471368 644.076362,54.0763621 C644.051446,54.2183821 643.981682,54.2881463 643.929359,54.4002674 C643.832187,54.60956 643.675218,54.7615463 643.548147,54.9434316 C643.460942,55.0630274 643.303973,55.1377747 643.256633,55.2872695 C643.216767,55.4218147 643.181885,55.55636 643.161953,55.6958884 C643.069764,55.1826232 642.142897,55.2050474 642.073133,54.7067316 C642.038251,54.5074053 642.152863,54.1311768 641.923638,54.0763621 C641.781618,54.0514463 641.711854,53.9816821 641.599733,53.9318505 C641.39044,53.8321874 641.235962,53.6752179 641.056568,53.5481474 C640.934481,53.4584505 640.859734,53.3014811 640.710239,53.2591242 C640.578185,53.2167674 640.44364,53.1818853 640.30162,53.1644442 C640.814885,53.0697642 640.794953,52.1428968 641.290777,52.0756242 C641.492595,52.0357589 641.868823,52.1528632 641.923638,51.9236379 C641.948554,51.7816179 642.018318,51.7118537 642.068149,51.5997326 C642.165321,51.39044 642.322291,51.2359621 642.454344,51.0565684 C642.539058,50.9369726 642.696027,50.8622253 642.740876,50.7102389 C642.783233,50.5781853 642.818115,50.44364 642.833064,50.30162 C642.927744,50.8173768 643.857103,50.7949526 643.924376,51.2907768 C643.964241,51.4925947 643.847137,51.8688232 644.076362,51.9236379 C644.218382,51.9485537 644.288146,52.0183179 644.400267,52.0681495 C644.60956,52.1653211 644.761546,52.3222905 644.943432,52.4518526 C645.063027,52.5390579 645.137775,52.6960274 645.287269,52.7408758 C645.421815,52.7832326 645.553868,52.8181147 645.695888,52.8355558 C645.180132,52.9302358 645.202556,53.8571032 644.706732,53.9243758 M648.827803,52.0631663 C648.700733,51.9186547 648.561204,52.0108432 648.431642,51.9684863 C648.179993,51.8862642 647.910902,51.9086884 647.649286,51.8513821 C647.472384,51.8289579 647.305448,51.7666684 647.136021,51.72182 C646.959119,51.6769716 646.814607,51.5723253 646.640197,51.5224937 C646.560466,51.5025611 646.443362,51.5474095 646.371106,51.5075442 C645.964979,51.3057263 645.618649,51.0067368 645.292253,50.6977811 C645.234946,50.6280168 645.217505,50.5208789 645.190098,50.4286905 C645.137775,50.2742126 645.182623,50.0524621 645.068011,49.9677484 C644.863701,49.8456611 644.46754,49.8232368 644.315554,49.6239105 C644.185992,49.4420253 644.37286,49.1106453 644.320537,48.9187937 C644.293129,48.7842484 643.974207,48.7518579 643.909426,48.6148211 C643.832187,48.3955621 643.966733,48.1314547 643.832187,47.93462 C643.744982,47.8000747 643.996632,47.6181895 643.844645,47.4961021 C643.762423,47.4263379 643.730033,47.3466074 643.687676,47.27186 C643.829696,47.2220284 643.767406,47.1547558 643.590504,47.0999411 C643.580538,47.0625674 643.600471,47.0052611 643.251649,47.0002779 C643.161953,46.9977863 643.104646,47.0127358 643.029899,47.0177189 C642.329765,46.9803453 642.145388,47.1024326 642.060675,47.1721968 C641.921146,47.2992674 642.010843,47.4363042 641.965995,47.5683579 C641.883773,47.8200074 641.91118,48.0890979 641.851382,48.3482221 C641.828958,48.5251242 641.766668,48.69206 641.72182,48.8664705 C641.67448,49.0383895 641.572325,49.1853926 641.524985,49.3573116 C641.502561,49.4370421 641.544918,49.5566379 641.505053,49.6288937 C641.308218,50.0350211 641.006737,50.3813505 640.697781,50.7052558 C640.628017,50.7650537 640.520879,50.7800032 640.428691,50.8099021 C640.274213,50.8622253 640.054954,50.8148853 639.967748,50.9344811 C639.845661,51.1338074 639.823237,51.5299684 639.623911,51.6844463 C639.442025,51.8140084 639.110645,51.62714 638.918794,51.6794632 C638.784248,51.7068705 638.749366,52.0233011 638.614821,52.0905737 C638.395562,52.1678126 638.131455,52.0307758 637.932128,52.1678126 C637.800075,52.2550179 637.618189,52.0033684 637.496102,52.1553547 C637.423846,52.2350853 637.346607,52.2674758 637.269368,52.3098326 C637.219537,52.1703042 637.154756,52.2325937 637.099941,52.4094958 C637.065059,52.4169705 637.005261,52.3970379 637.000278,52.7483505 C636.997786,52.8355558 637.012736,52.8903705 637.017719,52.9676095 C636.977854,53.6702347 637.099941,53.8546116 637.172197,53.9343421 C637.296776,54.0788537 637.436304,53.9891568 637.568358,54.0315137 C637.820007,54.1137358 638.089098,54.08882 638.348222,54.1486179 C638.527616,54.1710421 638.69206,54.2333316 638.866471,54.27818 C639.038389,54.3230284 639.185393,54.4276747 639.359803,54.4775063 C639.437042,54.4974389 639.556638,54.4525905 639.628894,54.4924558 C640.035021,54.6942737 640.378859,54.9932632 640.707747,55.3022189 C640.765054,55.3694916 640.780003,55.4791211 640.809902,55.5713095 C640.862225,55.7257874 640.814885,55.9475379 640.934481,56.0322516 C641.133807,56.1543389 641.53246,56.1767632 641.684446,56.3760895 C641.814008,56.5579747 641.62714,56.8868632 641.679463,57.0812063 C641.706871,57.2157516 642.023301,57.2481421 642.088082,57.3851789 C642.165321,57.6044379 642.030776,57.8685453 642.167813,58.06538 C642.257509,58.1999253 642.00586,58.3818105 642.155355,58.5014063 C642.232594,58.5736621 642.267476,58.6533926 642.307341,58.7306316 C642.170304,58.7804632 642.232594,58.8452442 642.409496,58.9000589 C642.416971,58.9349411 642.397038,58.9947389 642.748351,58.9997221 C642.833064,59.0022137 642.890371,58.9872642 642.967609,58.9822811 C643.667743,59.0196547 643.85212,58.8975674 643.934342,58.8278032 C644.078854,58.7007326 643.989157,58.5612042 644.031514,58.4316421 C644.113736,58.1799926 644.091312,57.9109021 644.148618,57.6492863 C644.168551,57.4723842 644.233332,57.3054484 644.27818,57.1335295 C644.323028,56.9616105 644.427675,56.8146074 644.475015,56.6401968 C644.497439,56.5629579 644.452591,56.4433621 644.492456,56.3686147 C644.694274,55.9649789 644.993263,55.6186495 645.302219,55.2922526 C645.371983,55.2349463 645.479121,55.2199968 645.571309,55.1900979 C645.723296,55.1377747 645.945046,55.1826232 646.02976,55.0655189 C646.154339,54.8637011 646.176763,54.46754 646.376089,54.3155537 C646.557975,54.1859916 646.889355,54.37286 647.081206,54.3205368 C647.215752,54.2931295 647.250634,53.9766989 647.382687,53.9094263 C647.604438,53.8321874 647.868545,53.9692242 648.067872,53.8321874 C648.197434,53.7449821 648.381811,53.99414 648.501406,53.8446453 C648.573662,53.7649147 648.653393,53.7325242 648.72814,53.6901674 C648.780463,53.8272042 648.842753,53.7674063 648.900059,53.5905042 C648.934941,53.5830295 648.994739,53.6029621 648.999722,53.2516495 C649.002214,53.1644442 648.987264,53.1096295 648.982281,53.0348821 C649.019655,52.3297653 648.897567,52.1453884 648.827803,52.0631663" id="icon-star-plum-small"></path>
        </g>
    </g>
</svg>