<?xml version="1.0" encoding="UTF-8"?>
<svg width="21px" height="20px" viewBox="0 0 21 20" version="1.1" xmlns="http://www.w3.org/2000/svg" xmlns:xlink="http://www.w3.org/1999/xlink">
    <title>icon-instagram</title>
    <g id="Symbols" stroke="none" stroke-width="1" fill="none" fill-rule="evenodd">
        <g id="Footer---new" transform="translate(-392.000000, -1.000000)" fill="#BB8472">
            <g id="Group-6" transform="translate(367.000000, 1.000000)">
                <path d="M40.8047338,5.85852335 C40.1384162,5.85852335 39.6091696,5.32346361 39.6091696,4.66273147 C39.6091696,4.00199933 40.1441275,3.46693959 40.8047338,3.46693959 C41.4653402,3.46693959 42.0002981,4.00199933 42.0002981,4.66273147 C42.0002981,5.32727186 41.4653402,5.85852335 40.8047338,5.85852335 M38.8000696,10 C38.8000696,8.16061313 37.3056143,6.66587328 35.4665776,6.66587328 C33.6294447,6.66587328 32.1349894,8.16061313 32.1349894,10 C32.1349894,11.8393869 33.6332522,13.3341267 35.4665776,13.3341267 C37.3018068,13.3341267 38.8000696,11.8393869 38.8000696,10 M40.5953197,10 C40.5953197,12.8390536 38.3069946,15.1278145 35.4665776,15.1278145 C32.6299682,15.1278145 30.3416431,12.8390536 30.3416431,10 C30.3416431,7.16094635 32.6299682,4.87218546 35.4665776,4.87218546 C38.3069946,4.87218546 40.5953197,7.16094635 40.5953197,10 M43.6641884,10 C43.6641884,8.54524682 43.7841256,5.42057409 43.2624941,4.1048222 C42.9102976,3.22511544 42.2363649,2.55105441 41.3625369,2.20450326 C40.050843,1.68658066 36.9229576,1.80273242 35.4665776,1.80273242 C34.0140052,1.80273242 30.8899273,1.68086828 29.5744259,2.20450326 C28.6948866,2.55676679 28.0209539,3.23082782 27.6744687,4.1048222 C27.154741,5.41676584 27.2727744,8.54524682 27.2727744,10 C27.2727744,11.4547532 27.1509334,14.5794259 27.6744687,15.8951778 C28.0247614,16.7748846 28.7005979,17.4470415 29.5744259,17.7974009 C30.8861198,18.3153235 34.0140052,18.1972676 35.4665776,18.1972676 C36.9229576,18.1972676 40.0470355,18.3172276 41.3625369,17.7974009 C42.2420762,17.4432332 42.9141051,16.7691722 43.2624941,15.8951778 C43.7841256,14.5832342 43.6641884,11.4547532 43.6641884,10 M45.3947105,14.1224354 C45.3147524,15.7257105 44.9492296,17.1442852 43.7803181,18.3153235 C42.6114065,19.4882658 41.1931018,19.8538582 39.590132,19.9300233 C37.939568,20.0233256 32.9916835,20.0233256 31.3392158,19.9300233 C29.7400534,19.85005 28.3236525,19.4825534 27.1509334,18.3153235 C25.9782144,17.1442852 25.6126916,15.7257105 25.5346372,14.1224354 C25.4432565,12.4715571 25.4432565,7.52273052 25.5346372,5.87185224 C25.6145953,4.27048127 25.9782144,2.85000238 27.1509334,1.68086828 C28.3236525,0.511734184 29.7419572,0.146141762 31.3392158,0.0699766744 C32.9916835,-0.0233255581 37.939568,-0.0233255581 39.590132,0.0699766744 C41.1931018,0.149950017 42.6114065,0.515542438 43.7803181,1.68658066 C44.9549409,2.85381063 45.3204637,4.27428952 45.3947105,5.87566049 C45.4898988,7.52653877 45.4898988,12.4715571 45.3947105,14.1224354" id="icon-instagram"></path>
            </g>
        </g>
    </g>
</svg>