<?xml version="1.0" encoding="UTF-8"?>
<svg width="18px" height="18px" viewBox="0 0 18 18" version="1.1" xmlns="http://www.w3.org/2000/svg" xmlns:xlink="http://www.w3.org/1999/xlink">
    <title>icon-linkedin</title>
    <g id="Welcome" stroke="none" stroke-width="1" fill="none" fill-rule="evenodd">
        <g id="Blog-Post" transform="translate(-535.000000, -2194.000000)" fill="#BB8472">
            <g id="Group-13" transform="translate(472.000000, 2194.000000)">
                <path d="M77.2714286,18 L77.2714286,12.1491429 C77.2714286,10.7554286 77.2422857,8.96742857 75.3308571,8.96742857 C73.3902857,8.96742857 73.0937143,10.4828571 73.0937143,12.0497143 L73.0937143,18 L69.3668571,18 L69.3668571,5.98285714 L72.9462857,5.98285714 L72.9462857,7.62171429 L72.9977143,7.62171429 C73.4965714,6.67885714 74.7137143,5.68114286 76.5274286,5.68114286 C80.3057143,5.68114286 81,8.16857143 81,11.3982857 L81,18 L80.9965714,18 L77.2714286,18 Z M63.2982857,18 L67.0302857,18 L67.0302857,5.98285714 L63.2982857,5.98285714 L63.2982857,18 Z M63,2.16171429 C63,0.968571429 63.9668571,0 65.1617143,0 C66.3548571,0 67.3217143,0.968571429 67.3217143,2.16171429 C67.3217143,3.35485714 66.3548571,4.344 65.1617143,4.344 C63.9668571,4.344 63,3.35485714 63,2.16171429 L63,2.16171429 Z" id="icon-linkedin"></path>
            </g>
        </g>
    </g>
</svg>