<?xml version="1.0" encoding="UTF-8"?>
<svg width="41px" height="44px" viewBox="0 0 41 44" version="1.1" xmlns="http://www.w3.org/2000/svg" xmlns:xlink="http://www.w3.org/1999/xlink">
    <title>icon-podcasts-apple</title>
    <g id="Welcome" stroke="none" stroke-width="1" fill="none" fill-rule="evenodd">
        <g id="Podcast-Landing-Page-" transform="translate(-415.000000, -3931.000000)" fill="#BB8472">
            <path d="M435.071045,3940.1795 C441.395602,3939.9421 446.619732,3944.89353 446.619732,3951.01385 C446.619732,3954.12714 445.269103,3956.93747 443.107634,3958.91804 C442.926932,3959.08535 442.827315,3959.32275 442.841215,3959.56693 C442.885232,3960.31303 442.869015,3961.03653 442.818048,3961.85272 C442.804148,3962.06977 443.05435,3962.20995 443.239685,3962.0856 C446.860668,3959.67093 449.242222,3955.61031 449.242222,3951.01385 C449.242222,3943.4488 442.785614,3937.32621 434.966794,3937.62239 C427.701662,3937.89596 421.870559,3943.74272 421.777891,3950.83976 C421.717658,3955.50631 424.115429,3959.64154 427.782746,3962.0856 C427.968081,3962.20995 428.215966,3962.06977 428.202066,3961.85272 C428.151099,3961.03653 428.134882,3960.31303 428.178899,3959.56693 C428.192799,3959.32275 428.095498,3959.08535 427.91248,3958.91804 C425.683827,3956.87643 424.316981,3953.95079 424.405015,3950.72445 C424.557917,3945.04049 429.251526,3940.40107 435.071045,3940.1795 M435.441715,3931.00007 C424.282231,3931.0318 415.140582,3939.86523 415.00158,3950.7561 C414.890379,3959.57597 420.658931,3967.12068 428.716371,3969.88579 C428.910972,3969.95362 429.110208,3969.79535 429.080091,3969.59413 C428.973523,3968.91133 428.873905,3968.22175 428.783555,3967.54573 C428.748804,3967.30607 428.593586,3967.10033 428.366551,3967.00311 C422.000293,3964.28774 417.552253,3958.05663 417.624071,3950.83524 C417.719055,3941.36196 425.64676,3933.63864 435.353681,3933.56177 C445.27837,3933.4849 453.37751,3941.33935 453.37751,3951.00707 C453.37751,3958.15385 448.95032,3964.31035 442.632713,3967.00311 C442.405677,3967.10033 442.250459,3967.30833 442.218026,3967.54573 C442.127675,3968.22175 442.028057,3968.91133 441.92149,3969.59413 C441.891373,3969.79535 442.090608,3969.95362 442.28521,3969.88579 C450.263882,3967.14781 456,3959.72067 456,3951.00707 C456,3939.95567 446.772633,3930.97075 435.441715,3931.00007 M430.729572,3949.37694 C430.729572,3951.94761 432.865558,3954.03218 435.501949,3954.03218 C438.136022,3954.03218 440.272008,3951.94761 440.272008,3949.37694 C440.272008,3946.80401 438.136022,3944.71943 435.501949,3944.71943 C432.865558,3944.71943 430.729572,3946.80401 430.729572,3949.37694 M439.720637,3957.39644 C438.844929,3956.49659 437.308965,3955.9178 435.497315,3955.9178 C433.681032,3955.9178 432.145068,3956.49659 431.271677,3957.39644 C430.81529,3957.86671 430.574354,3958.34829 430.495587,3959.03335 C430.349635,3960.36277 430.433036,3961.50906 430.590571,3963.33815 C430.743472,3965.08132 431.033058,3967.40555 431.408362,3969.775 C431.677097,3971.45939 431.894866,3972.37054 432.094101,3973.02169 C432.416121,3974.07754 433.618482,3975 435.497315,3975 C437.376149,3975 438.576193,3974.07754 438.898212,3973.02169 C439.097448,3972.37054 439.315216,3971.45939 439.581635,3969.775 C439.959255,3967.40555 440.246525,3965.08132 440.399426,3963.33815 C440.559277,3961.50906 440.642678,3960.36277 440.49441,3959.03335 C440.420276,3958.34829 440.177024,3957.86671 439.720637,3957.39644" id="icon-podcasts-apple"></path>
        </g>
    </g>
</svg>