<?xml version="1.0" encoding="UTF-8"?>
<svg width="20px" height="20px" viewBox="0 0 20 20" version="1.1" xmlns="http://www.w3.org/2000/svg" xmlns:xlink="http://www.w3.org/1999/xlink">
    <title>icon-star-cream</title>
    <g id="Welcome" stroke="none" stroke-width="1" fill="none" fill-rule="evenodd">
        <g id="Single-Pager" transform="translate(-502.000000, -5374.000000)" fill="#F3EEED">
            <path d="M507.951601,5384.9235 C507.607063,5384.78299 507.271591,5384.61076 506.863585,5384.63342 C506.475979,5384.64702 506.33771,5384.19603 506.027172,5384.017 C506.015839,5384.0102 506.006772,5384.0102 505.999972,5384.00567 C506.31051,5383.85156 506.634648,5383.72918 507.035854,5383.72238 C507.999202,5383.70425 508.164671,5382.42155 508.924016,5382.14054 C509.193754,5382.02496 509.62216,5382.04989 509.762695,5381.76207 C509.832963,5381.57851 509.939498,5381.46973 510.0347,5381.31336 C510.220569,5381.02328 510.451773,5380.77625 510.648976,5380.4975 C510.782711,5380.31167 510.988981,5380.17116 511.075115,5379.9536 C511.213384,5379.60687 511.38792,5379.27373 511.365253,5378.86353 C511.349386,5378.47601 511.80046,5378.34003 511.979529,5378.02729 C511.984063,5378.01822 511.984063,5378.00916 511.990863,5378.00009 C512.147265,5378.31284 512.2674,5378.63464 512.2742,5379.03577 C512.294601,5379.99893 513.57302,5380.1621 513.854091,5380.92129 C513.971959,5381.19324 513.949292,5381.62383 514.234897,5381.76207 C514.420766,5381.83233 514.527301,5381.93884 514.68597,5382.03402 C514.973841,5382.21986 515.223178,5382.45102 515.501983,5382.64818 C515.685585,5382.78189 515.826121,5382.98812 516.045991,5383.07424 C516.392796,5383.21474 516.723734,5383.38698 517.134007,5383.36658 C517.52388,5383.34845 517.659882,5383.79944 517.97042,5383.98074 C517.979487,5383.98527 517.99082,5383.98527 517.999887,5383.99207 C517.687082,5384.14617 517.362944,5384.26855 516.964005,5384.27308 C516.000657,5384.29348 515.837454,5385.57391 515.075843,5385.8572 C514.803839,5385.97051 514.373165,5385.94558 514.234897,5386.23566 C514.166896,5386.41696 514.058094,5386.52801 513.965159,5386.68438 C513.777023,5386.97446 513.548086,5387.22148 513.348617,5387.50023 C513.214881,5387.68606 513.008611,5387.8243 512.922477,5388.04413 C512.784208,5388.39087 512.611939,5388.72401 512.632339,5389.13193 C512.648206,5389.52173 512.197132,5389.6577 512.018063,5389.97045 C512.011263,5389.97725 512.011263,5389.98858 512.00673,5389.99991 C511.852594,5389.6849 511.727925,5389.36309 511.723392,5388.96196 C511.702992,5387.99881 510.422305,5387.83337 510.141235,5387.07417 C510.025633,5386.80449 510.052833,5386.3739 509.762695,5386.23566 C509.579093,5386.16541 509.470291,5386.05663 509.316155,5385.96371 C509.023751,5385.77561 508.774414,5385.54672 508.49561,5385.34729 C508.312007,5385.21358 508.171471,5385.00962 507.951601,5384.9235 M508.821911,5387.85854 C508.961359,5388.09563 508.998545,5388.39781 509.179826,5388.58144 C509.495907,5388.85107 509.963056,5389.044 510.211738,5389.40196 C510.416261,5389.72738 510.316323,5390.19691 510.437178,5390.54093 C510.506901,5390.77802 510.841575,5390.92213 510.946161,5391.16155 C511.064691,5391.5474 510.997292,5391.9751 511.150684,5392.347 C511.248297,5392.59107 511.036802,5392.88162 511.190194,5393.11406 C511.278511,5393.26515 511.318021,5393.41856 511.364503,5393.5743 C511.239001,5393.65565 511.287807,5393.7556 511.450496,5393.83928 C511.457468,5393.90437 511.462117,5393.99269 511.766577,5393.99985 C511.845597,5394.00199 511.896728,5393.98107 511.966452,5393.97177 C512.624179,5394.03221 512.800812,5393.82301 512.882157,5393.69052 C513.023928,5393.45808 512.935611,5393.20936 512.993714,5392.96995 C513.102948,5392.50506 513.116893,5392.02623 513.235423,5391.56135 C513.288878,5391.24523 513.412057,5390.95002 513.502698,5390.6432 C513.593339,5390.33405 513.769972,5390.06674 513.879206,5389.76457 C513.925688,5389.6251 513.923364,5389.45775 513.997736,5389.3299 C514.364948,5388.61863 514.894848,5388.00731 515.443342,5387.4262 C515.559548,5387.3216 515.717588,5387.25419 515.857036,5387.17749 C516.094096,5387.04035 516.398557,5387.00315 516.582163,5386.81953 C516.851761,5386.50573 517.044663,5386.03619 517.400254,5385.78981 C517.725632,5385.58293 518.195105,5385.68288 518.541399,5385.56201 C518.77846,5385.4946 518.922556,5385.15756 519.161941,5385.05529 C519.547745,5384.93674 519.977708,5385.00183 520.347244,5384.85074 C520.588953,5384.75079 520.879469,5384.96231 521.114205,5384.8089 C521.262949,5384.7229 521.416341,5384.68106 521.572058,5384.63689 C521.651078,5384.76241 521.751015,5384.70895 521.839332,5384.55089 C521.902083,5384.54391 521.988076,5384.53927 521.999859,5384.23477 C522.002021,5384.15341 521.978779,5384.10227 521.969483,5384.03022 C522.032234,5383.37473 521.820739,5383.19807 521.688264,5383.11904 C521.455851,5382.97725 521.20717,5383.06093 520.970109,5383.00747 C520.50296,5382.89822 520.026515,5382.88428 519.56169,5382.76341 C519.243285,5382.71227 518.948121,5382.58908 518.643661,5382.4961 C518.336876,5382.40777 518.064954,5382.23111 517.765142,5382.12187 C517.625694,5382.07305 517.458357,5382.07538 517.328206,5382.00332 C516.617024,5381.63374 516.00578,5381.10377 515.427073,5380.55753 C515.320163,5380.43898 515.257412,5380.28325 515.178391,5380.14146 C515.041268,5379.90669 515.001758,5379.60219 514.818152,5379.41856 C514.504395,5379.14893 514.037246,5378.956 513.793213,5378.60037 C513.586366,5378.27262 513.683979,5377.80309 513.560801,5377.45907 C513.498049,5377.22198 513.158727,5377.07787 513.054142,5376.83845 C512.935611,5376.45027 513.003011,5376.02258 512.849619,5375.653 C512.749681,5375.40893 512.961177,5375.11838 512.810109,5374.88594 C512.721792,5374.73485 512.679958,5374.58144 512.635799,5374.42803 C512.763626,5374.34435 512.710171,5374.24672 512.549807,5374.15839 C512.542834,5374.09796 512.54051,5374.00731 512.233726,5374.00015 C512.152381,5373.99801 512.103575,5374.01893 512.031527,5374.02823 C511.376124,5373.96547 511.19949,5374.17699 511.118146,5374.30948 C510.978699,5374.54192 511.064691,5374.79064 511.006588,5375.02773 C510.899678,5375.49494 510.885734,5375.97144 510.764879,5376.43633 C510.711424,5376.75477 510.59057,5377.04998 510.497605,5377.3568 C510.409288,5377.66362 510.230331,5377.93326 510.123421,5378.23543 C510.074614,5378.37257 510.076938,5378.54225 510.004891,5378.6701 C509.637679,5379.38137 509.105454,5379.99269 508.559285,5380.5738 C508.438431,5380.6784 508.285039,5380.74348 508.143267,5380.82251 C507.906206,5380.95965 507.60407,5380.99685 507.41814,5381.18047 C507.148542,5381.49427 506.955639,5381.96381 506.600048,5382.20787 C506.272347,5382.41474 505.802874,5382.31712 505.461227,5382.43799 C505.221843,5382.50307 505.080071,5382.84244 504.838362,5382.94471 C504.452557,5383.06326 504.024919,5382.99585 503.653059,5383.14926 C503.41135,5383.24921 503.120834,5383.03769 502.886098,5383.1911 C502.737354,5383.2771 502.581637,5383.31894 502.428245,5383.36311 C502.346901,5383.23759 502.246963,5383.29105 502.160971,5383.44911 C502.095895,5383.45609 502.007579,5383.46073 502.000606,5383.76523 C501.995958,5383.84659 502.019199,5383.89773 502.03082,5383.97211 C501.968068,5384.62527 502.179564,5384.80193 502.309715,5384.88096 C502.544451,5385.02275 502.790808,5384.93674 503.030193,5384.99253 C503.495018,5385.10178 503.973788,5385.11572 504.438613,5385.23659 C504.757018,5385.28773 505.052182,5385.41092 505.358966,5385.5039 C505.66575,5385.59223 505.935349,5385.77121 506.237485,5385.87813 C506.374608,5385.92462 506.544269,5385.9223 506.669772,5385.99668 C507.383278,5386.36394 507.994523,5386.89623 508.575554,5387.44247 C508.68014,5387.56102 508.747539,5387.71675 508.821911,5387.85854" id="icon-star-cream"></path>
        </g>
    </g>
</svg>