<?xml version="1.0" encoding="UTF-8"?>
<svg width="12px" height="12px" viewBox="0 0 12 12" version="1.1" xmlns="http://www.w3.org/2000/svg" xmlns:xlink="http://www.w3.org/1999/xlink">
    <title>icon-star-adobe-small</title>
    <g id="Welcome" stroke="none" stroke-width="1" fill="none" fill-rule="evenodd">
        <g id="Programs" transform="translate(-506.000000, -616.000000)" fill="#BB8472">
            <path d="M513.706732,622.924376 C513.507405,622.964241 513.131177,622.847137 513.076362,623.076362 C513.051446,623.218382 512.981682,623.288146 512.929359,623.400267 C512.832187,623.60956 512.675218,623.761546 512.548147,623.943432 C512.460942,624.063027 512.303973,624.137775 512.256633,624.287269 C512.216767,624.421815 512.181885,624.55636 512.161953,624.695888 C512.069764,624.182623 511.142897,624.205047 511.073133,623.706732 C511.038251,623.507405 511.152863,623.131177 510.923638,623.076362 C510.781618,623.051446 510.711854,622.981682 510.599733,622.931851 C510.39044,622.832187 510.235962,622.675218 510.056568,622.548147 C509.934481,622.458451 509.859734,622.301481 509.710239,622.259124 C509.578185,622.216767 509.44364,622.181885 509.30162,622.164444 C509.814885,622.069764 509.794953,621.142897 510.290777,621.075624 C510.492595,621.035759 510.868823,621.152863 510.923638,620.923638 C510.948554,620.781618 511.018318,620.711854 511.068149,620.599733 C511.165321,620.39044 511.322291,620.235962 511.454344,620.056568 C511.539058,619.936973 511.696027,619.862225 511.740876,619.710239 C511.783233,619.578185 511.818115,619.44364 511.833064,619.30162 C511.927744,619.817377 512.857103,619.794953 512.924376,620.290777 C512.964241,620.492595 512.847137,620.868823 513.076362,620.923638 C513.218382,620.948554 513.288146,621.018318 513.400267,621.068149 C513.60956,621.165321 513.761546,621.322291 513.943432,621.451853 C514.063027,621.539058 514.137775,621.696027 514.287269,621.740876 C514.421815,621.783233 514.553868,621.818115 514.695888,621.835556 C514.180132,621.930236 514.202556,622.857103 513.706732,622.924376 M517.827803,621.063166 C517.700733,620.918655 517.561204,621.010843 517.431642,620.968486 C517.179993,620.886264 516.910902,620.908688 516.649286,620.851382 C516.472384,620.828958 516.305448,620.766668 516.136021,620.72182 C515.959119,620.676972 515.814607,620.572325 515.640197,620.522494 C515.560466,620.502561 515.443362,620.547409 515.371106,620.507544 C514.964979,620.305726 514.618649,620.006737 514.292253,619.697781 C514.234946,619.628017 514.217505,619.520879 514.190098,619.428691 C514.137775,619.274213 514.182623,619.052462 514.068011,618.967748 C513.863701,618.845661 513.46754,618.823237 513.315554,618.623911 C513.185992,618.442025 513.37286,618.110645 513.320537,617.918794 C513.293129,617.784248 512.974207,617.751858 512.909426,617.614821 C512.832187,617.395562 512.966733,617.131455 512.832187,616.93462 C512.744982,616.800075 512.996632,616.618189 512.844645,616.496102 C512.762423,616.426338 512.730033,616.346607 512.687676,616.27186 C512.829696,616.222028 512.767406,616.154756 512.590504,616.099941 C512.580538,616.062567 512.600471,616.005261 512.251649,616.000278 C512.161953,615.997786 512.104646,616.012736 512.029899,616.017719 C511.329765,615.980345 511.145388,616.102433 511.060675,616.172197 C510.921146,616.299267 511.010843,616.436304 510.965995,616.568358 C510.883773,616.820007 510.91118,617.089098 510.851382,617.348222 C510.828958,617.525124 510.766668,617.69206 510.72182,617.866471 C510.67448,618.038389 510.572325,618.185393 510.524985,618.357312 C510.502561,618.437042 510.544918,618.556638 510.505053,618.628894 C510.308218,619.035021 510.006737,619.381351 509.697781,619.705256 C509.628017,619.765054 509.520879,619.780003 509.428691,619.809902 C509.274213,619.862225 509.054954,619.814885 508.967748,619.934481 C508.845661,620.133807 508.823237,620.529968 508.623911,620.684446 C508.442025,620.814008 508.110645,620.62714 507.918794,620.679463 C507.784248,620.706871 507.749366,621.023301 507.614821,621.090574 C507.395562,621.167813 507.131455,621.030776 506.932128,621.167813 C506.800075,621.255018 506.618189,621.003368 506.496102,621.155355 C506.423846,621.235085 506.346607,621.267476 506.269368,621.309833 C506.219537,621.170304 506.154756,621.232594 506.099941,621.409496 C506.065059,621.416971 506.005261,621.397038 506.000278,621.748351 C505.997786,621.835556 506.012736,621.890371 506.017719,621.967609 C505.977854,622.670235 506.099941,622.854612 506.172197,622.934342 C506.296776,623.078854 506.436304,622.989157 506.568358,623.031514 C506.820007,623.113736 507.089098,623.08882 507.348222,623.148618 C507.527616,623.171042 507.69206,623.233332 507.866471,623.27818 C508.038389,623.323028 508.185393,623.427675 508.359803,623.477506 C508.437042,623.497439 508.556638,623.452591 508.628894,623.492456 C509.035021,623.694274 509.378859,623.993263 509.707747,624.302219 C509.765054,624.369492 509.780003,624.479121 509.809902,624.571309 C509.862225,624.725787 509.814885,624.947538 509.934481,625.032252 C510.133807,625.154339 510.53246,625.176763 510.684446,625.376089 C510.814008,625.557975 510.62714,625.886863 510.679463,626.081206 C510.706871,626.215752 511.023301,626.248142 511.088082,626.385179 C511.165321,626.604438 511.030776,626.868545 511.167813,627.06538 C511.257509,627.199925 511.00586,627.381811 511.155355,627.501406 C511.232594,627.573662 511.267476,627.653393 511.307341,627.730632 C511.170304,627.780463 511.232594,627.845244 511.409496,627.900059 C511.416971,627.934941 511.397038,627.994739 511.748351,627.999722 C511.833064,628.002214 511.890371,627.987264 511.967609,627.982281 C512.667743,628.019655 512.85212,627.897567 512.934342,627.827803 C513.078854,627.700733 512.989157,627.561204 513.031514,627.431642 C513.113736,627.179993 513.091312,626.910902 513.148618,626.649286 C513.168551,626.472384 513.233332,626.305448 513.27818,626.133529 C513.323028,625.961611 513.427675,625.814607 513.475015,625.640197 C513.497439,625.562958 513.452591,625.443362 513.492456,625.368615 C513.694274,624.964979 513.993263,624.618649 514.302219,624.292253 C514.371983,624.234946 514.479121,624.219997 514.571309,624.190098 C514.723296,624.137775 514.945046,624.182623 515.02976,624.065519 C515.154339,623.863701 515.176763,623.46754 515.376089,623.315554 C515.557975,623.185992 515.889355,623.37286 516.081206,623.320537 C516.215752,623.293129 516.250634,622.976699 516.382687,622.909426 C516.604438,622.832187 516.868545,622.969224 517.067872,622.832187 C517.197434,622.744982 517.381811,622.99414 517.501406,622.844645 C517.573662,622.764915 517.653393,622.732524 517.72814,622.690167 C517.780463,622.827204 517.842753,622.767406 517.900059,622.590504 C517.934941,622.583029 517.994739,622.602962 517.999722,622.251649 C518.002214,622.164444 517.987264,622.109629 517.982281,622.034882 C518.019655,621.329765 517.897567,621.145388 517.827803,621.063166" id="icon-star-adobe-small"></path>
        </g>
    </g>
</svg>