<?xml version="1.0" encoding="UTF-8"?>
<svg width="137px" height="81px" viewBox="0 0 137 81" version="1.1" xmlns="http://www.w3.org/2000/svg" xmlns:xlink="http://www.w3.org/1999/xlink">
    <title>logo-footer</title>
    <g id="Symbols" stroke="none" stroke-width="1" fill="none" fill-rule="evenodd">
        <g id="Footer" transform="translate(-321.000000, -38.000000)" fill="#BB8472">
            <g id="logo-footer" transform="translate(321.000000, 38.000000)">
                <g id="Group-32">
                    <path d="M33.848,14.8854 C32.961,14.8854 32.074,14.9054 31.37,14.9474 C31.536,13.6674 31.536,12.3454 31.474,11.0244 L31.268,5.9044 C31.248,5.5534 31.226,4.8934 31.226,4.3974 C30.979,5.0374 30.525,6.0494 30.339,6.4824 L27.676,12.5934 C27.346,13.3564 27.036,14.1824 26.911,15.0714 C26.581,15.0504 26.065,15.0504 25.611,15.0504 C25.198,15.0504 24.868,15.0714 24.331,15.0914 C24.249,14.3274 23.938,13.5844 23.608,12.7784 L20.966,6.5234 C20.718,5.9244 20.285,4.9544 20.14,4.5414 L20.057,6.2344 L19.789,11.0044 C19.727,12.2624 19.686,13.5434 20.057,14.9474 C19.624,14.9264 19.066,14.9264 18.488,14.9264 C17.91,14.9264 17.332,14.9264 16.879,14.9474 C17.229,13.6874 17.353,12.4074 17.457,11.0654 L17.931,4.6244 C17.952,4.2114 17.993,3.6954 17.993,3.2204 C17.993,2.1684 17.849,1.7344 16.858,1.7344 L16.693,1.7344 L17.127,0.5784 C17.807,0.5994 19.356,0.5994 20.368,0.5994 C21.235,0.5994 22.432,0.5784 23.195,0.5364 C23.34,1.3424 23.423,1.5694 23.733,2.3734 L26.148,8.5474 C26.293,8.9184 26.437,9.3524 26.623,9.8884 C26.808,9.3724 26.974,9.0014 27.139,8.5884 L29.679,2.5814 C29.947,1.9404 30.071,1.5484 30.257,0.5364 C31.433,0.5784 32.114,0.5994 32.982,0.5994 C33.786,0.5994 34.819,0.5994 35.377,0.5784 C35.252,1.6724 35.273,2.7664 35.314,3.9854 L35.582,11.0654 C35.645,12.9034 35.83,14.0594 36.14,14.9474 C35.562,14.9054 34.716,14.8854 33.848,14.8854" id="Fill-1"></path>
                    <path d="M50.5081,7.8863 C50.5081,4.0253 49.2291,1.8383 46.9571,1.8383 C44.5421,1.8383 43.3441,3.7373 43.3441,7.5763 C43.3441,11.4573 44.6451,13.6253 46.9781,13.6253 C49.3111,13.6253 50.5081,11.6433 50.5081,7.8863 M38.7811,7.9063 C38.7811,3.2413 42.2101,0.0003 47.0821,0.0003 C52.7581,0.0003 55.0711,3.5513 55.0711,7.5553 C55.0711,12.3453 51.7061,15.4213 46.6271,15.4213 C41.7971,15.4213 38.7811,12.5523 38.7811,7.9063" id="Fill-3"></path>
                    <path d="M67.3065,3.6124 C66.5845,2.6834 65.6355,2.3334 64.0045,2.3334 C63.3635,2.3334 63.1155,2.3734 62.7235,2.4364 C62.7025,2.7664 62.6625,3.8404 62.6625,4.4384 L62.6625,10.9624 C62.6625,12.7384 63.1155,13.0684 64.7265,13.0684 C66.5445,13.0684 68.4015,11.7264 68.4015,7.9884 C68.4015,5.8624 68.0715,4.5634 67.3065,3.6124 M64.6025,14.9674 C63.3635,14.9674 62.0845,14.9054 60.8865,14.9054 C60.1425,14.9054 58.8015,14.9254 58.2435,14.9464 C58.5125,13.7084 58.5335,12.3654 58.5335,11.0244 L58.5335,4.5204 C58.5335,3.5094 58.4715,2.7864 58.3685,2.3734 C58.2645,1.8994 57.9755,1.7344 57.3155,1.7344 L57.1495,1.7344 L57.5825,0.5784 C58.2645,0.5994 59.3385,0.5994 60.1855,0.5994 C62.2695,0.5994 64.3755,0.5784 66.5235,0.5784 C68.5665,0.5784 69.5785,0.8664 70.5905,1.5694 C72.1385,2.6214 72.9645,4.4594 72.9645,6.8544 C72.9645,11.6024 69.8665,14.9674 64.6025,14.9674" id="Fill-5"></path>
                    <path d="M86.7684,12.0353 C86.5414,12.9033 86.2944,14.2443 86.2514,15.0293 C83.3404,14.9473 81.8754,14.9263 80.6574,14.9263 C78.6144,14.9263 77.2504,14.9263 76.1564,14.9473 C76.3424,13.7693 76.4464,12.5933 76.4464,11.0243 L76.4464,4.5203 C76.4464,3.5093 76.3844,2.7863 76.2814,2.3733 C76.1774,1.8993 75.8894,1.7343 75.2284,1.7343 L75.0634,1.7343 L75.4954,0.5783 C76.1774,0.5993 77.2504,0.5993 78.0984,0.5993 L82.0614,0.5993 C83.7744,0.5993 84.1664,0.5563 85.9644,0.5363 C85.6954,1.4653 85.4054,2.3533 85.2824,3.3243 L84.8484,3.3643 C84.2914,2.3333 82.9704,2.2293 81.7924,2.2293 C81.4004,2.2293 81.0494,2.2503 80.6154,2.2713 C80.5544,2.6833 80.5334,3.4893 80.5334,4.2323 L80.5334,6.0693 L82.8454,6.0693 C83.7134,6.0693 84.0644,6.0283 85.0554,5.9463 C85.0134,6.3583 84.9924,6.6673 84.9924,7.0603 C84.9924,7.3703 85.0134,7.7413 85.0344,8.0933 C83.6704,7.9893 83.0314,7.9693 82.1444,7.9693 L80.5134,7.9693 L80.5134,10.2813 C80.5134,12.3663 80.6574,13.1093 82.9914,13.1093 C84.2294,13.1093 85.3864,12.9443 86.2944,11.9123 L86.7684,12.0353 Z" id="Fill-7"></path>
                    <path d="M98.5316,15.0504 C98.0566,13.9774 97.9956,13.8944 97.7266,13.3364 C96.8796,11.5824 96.3236,10.5294 95.9096,9.7654 C95.3726,8.7744 95.2076,8.6294 94.7116,8.6294 L94.5466,8.6294 L94.8766,7.0194 C95.2076,7.0604 95.4756,7.0804 95.6836,7.0804 C96.9836,7.0804 97.7476,6.1724 97.7476,4.6654 C97.7476,3.0344 96.9006,2.2084 95.2076,2.2084 C94.9196,2.2084 94.6716,2.2294 94.1756,2.2914 C94.1146,2.8284 94.0936,3.3034 94.0936,3.9644 L94.0936,11.0444 C94.0936,12.9234 94.2376,14.2444 94.5066,14.9464 C93.9276,14.9054 93.0596,14.8854 92.1936,14.8854 C91.3066,14.8854 90.4176,14.9054 89.7166,14.9464 C89.9226,13.6874 90.0046,12.3864 90.0046,11.0244 L90.0046,4.5204 C90.0046,3.5094 89.9436,2.7864 89.8396,2.3734 C89.7376,1.8994 89.4476,1.7344 88.7866,1.7344 L88.6216,1.7344 L89.0556,0.5784 C89.7376,0.5994 90.8116,0.5994 92.2346,0.5994 C94.6926,0.5994 95.6196,0.5564 97.8916,0.5564 C99.5016,0.5564 100.2866,0.7644 101.0086,1.4044 C101.6486,1.9604 101.9596,2.7664 101.9596,3.8604 C101.9596,5.6764 101.0516,6.7924 99.1096,7.3704 C100.7206,10.1784 101.3816,11.2724 102.0206,12.2624 C102.5566,13.1304 103.1156,13.9554 103.8776,14.7404 L103.8166,14.9674 C102.0826,14.9674 100.0796,14.9674 98.5316,15.0504" id="Fill-9"></path>
                    <path d="M117.1693,7.8663 L117.1693,4.4803 C117.1693,3.1993 117.0253,1.8383 116.5303,0.5783 C117.0463,0.5993 117.6463,0.5993 118.2243,0.5993 C118.8023,0.5993 119.3793,0.5993 119.8753,0.5783 C119.6273,1.7553 119.5853,2.9723 119.5853,4.4803 L119.5853,11.0043 C119.5853,12.2423 119.6893,13.4813 119.9373,15.0503 C119.4823,15.0293 118.8213,15.0293 118.1813,15.0293 C117.5213,15.0293 116.8813,15.0293 116.4263,15.0503 C115.7253,13.9553 115.4163,13.4813 115.0433,13.0063 L110.1713,6.6473 C109.8003,6.1723 109.3053,5.5333 109.1403,5.2433 C109.1193,5.5333 109.1193,5.7803 109.1193,6.2553 L109.1193,11.0443 C109.1193,12.3253 109.2843,13.6253 109.7583,14.9473 C109.3053,14.9263 108.6853,14.9053 108.1273,14.9053 C107.5713,14.9053 106.8283,14.9263 106.4343,14.9473 C106.6623,13.8943 106.7033,12.8003 106.7033,11.0243 L106.7033,4.5203 C106.7033,3.5093 106.6823,2.7863 106.5803,2.3733 C106.4763,1.8993 106.1863,1.7343 105.5253,1.7343 L105.3603,1.7343 L105.7943,0.5783 C106.4763,0.5993 107.5503,0.5993 108.3973,0.5993 C109.4283,0.5993 110.3363,0.5783 111.1013,0.5363 C111.5543,1.4253 111.8653,1.9603 112.4833,2.8073 L116.1783,7.8663 C116.4073,8.1753 117.1083,9.1453 117.2323,9.3723 C117.1903,9.0223 117.1693,8.4443 117.1693,7.8663" id="Fill-11"></path>
                    <path d="M9.9095,39.8287 C9.4345,38.7557 9.3715,38.6727 9.1035,38.1147 C8.2585,36.3597 7.7005,35.3067 7.2865,34.5437 C6.7505,33.5527 6.5855,33.4067 6.0895,33.4067 L5.9245,33.4067 L6.2545,31.7967 C6.5855,31.8387 6.8545,31.8577 7.0595,31.8577 C8.3605,31.8577 9.1235,30.9497 9.1235,29.4427 C9.1235,27.8117 8.2785,26.9867 6.5855,26.9867 C6.2965,26.9867 6.0485,27.0077 5.5535,27.0687 C5.4905,27.6067 5.4705,28.0807 5.4705,28.7417 L5.4705,35.8227 C5.4705,37.7017 5.6155,39.0227 5.8835,39.7247 C5.3055,39.6837 4.4385,39.6637 3.5715,39.6637 C2.6825,39.6637 1.7955,39.6837 1.0935,39.7247 C1.3005,38.4657 1.3825,37.1647 1.3825,35.8027 L1.3825,29.2987 C1.3825,28.2877 1.3215,27.5637 1.2175,27.1517 C1.1145,26.6767 0.8265,26.5117 0.1655,26.5117 L-0.0005,26.5117 L0.4325,25.3557 C1.1145,25.3767 2.1875,25.3767 3.6125,25.3767 C6.0685,25.3767 6.9985,25.3347 9.2685,25.3347 C10.8795,25.3347 11.6635,25.5417 12.3875,26.1817 C13.0265,26.7387 13.3355,27.5437 13.3355,28.6377 C13.3355,30.4547 12.4275,31.5697 10.4875,32.1477 C12.0975,34.9557 12.7575,36.0507 13.3985,37.0417 C13.9345,37.9087 14.4915,38.7337 15.2565,39.5177 L15.1945,39.7457 C13.4605,39.7457 11.4575,39.7457 9.9095,39.8287" id="Fill-13"></path>
                    <path d="M28.3641,36.8141 C28.1361,37.6811 27.8891,39.0231 27.8481,39.8071 C24.9371,39.7251 23.4721,39.7041 22.2531,39.7041 C20.2091,39.7041 18.8471,39.7041 17.7531,39.7251 C17.9391,38.5471 18.0421,37.3721 18.0421,35.8021 L18.0421,29.2981 C18.0421,28.2881 17.9791,27.5641 17.8771,27.1511 C17.7741,26.6771 17.4841,26.5121 16.8231,26.5121 L16.6581,26.5121 L17.0921,25.3561 C17.7741,25.3771 18.8471,25.3771 19.6931,25.3771 L23.6571,25.3771 C25.3711,25.3771 25.7631,25.3351 27.5581,25.3141 C27.2911,26.2431 27.0021,27.1311 26.8781,28.1021 L26.4451,28.1421 C25.8861,27.1111 24.5661,27.0071 23.3891,27.0071 C22.9961,27.0071 22.6461,27.0281 22.2121,27.0481 C22.1511,27.4611 22.1291,28.2671 22.1291,29.0101 L22.1291,30.8471 L24.4421,30.8471 C25.3091,30.8471 25.6591,30.8061 26.6501,30.7231 C26.6101,31.1361 26.5891,31.4461 26.5891,31.8381 C26.5891,32.1481 26.6101,32.5191 26.6301,32.8711 C25.2671,32.7671 24.6281,32.7471 23.7391,32.7471 L22.1081,32.7471 L22.1081,35.0591 C22.1081,37.1441 22.2531,37.8871 24.5861,37.8871 C25.8241,37.8871 26.9801,37.7221 27.8891,36.6911 L28.3641,36.8141 Z" id="Fill-16"></path>
                    <path d="M42.0975,32.6441 L42.0975,29.2581 C42.0975,27.9771 41.9525,26.6151 41.4565,25.3551 C41.9735,25.3771 42.5725,25.3771 43.1505,25.3771 C43.7285,25.3771 44.3065,25.3771 44.8025,25.3551 C44.5545,26.5331 44.5125,27.7501 44.5125,29.2581 L44.5125,35.7831 C44.5125,37.0211 44.6165,38.2591 44.8635,39.8291 C44.4095,39.8071 43.7485,39.8071 43.1085,39.8071 C42.4485,39.8071 41.8085,39.8071 41.3545,39.8291 C40.6525,38.7341 40.3435,38.2591 39.9705,37.7851 L35.0985,31.4251 C34.7275,30.9501 34.2325,30.3101 34.0675,30.0211 C34.0455,30.3101 34.0455,30.5581 34.0455,31.0331 L34.0455,35.8231 C34.0455,37.1041 34.2105,38.4041 34.6855,39.7251 C34.2325,39.7041 33.6115,39.6841 33.0555,39.6841 C32.4975,39.6841 31.7545,39.7041 31.3625,39.7251 C31.5895,38.6721 31.6295,37.5781 31.6295,35.8021 L31.6295,29.2981 C31.6295,28.2881 31.6095,27.5641 31.5075,27.1511 C31.4035,26.6771 31.1145,26.5121 30.4535,26.5121 L30.2885,26.5121 L30.7215,25.3551 C31.4035,25.3771 32.4765,25.3771 33.3235,25.3771 C34.3545,25.3771 35.2635,25.3551 36.0275,25.3141 C36.4815,26.2031 36.7925,26.7381 37.4105,27.5851 L41.1065,32.6441 C41.3335,32.9531 42.0355,33.9221 42.1595,34.1501 C42.1175,33.8001 42.0975,33.2221 42.0975,32.6441" id="Fill-18"></path>
                    <path d="M59.5189,36.8141 C59.2919,37.6811 59.0439,39.0231 59.0019,39.8071 C56.0919,39.7251 54.6249,39.7041 53.4079,39.7041 C51.3649,39.7041 50.0009,39.7041 48.9069,39.7251 C49.0929,38.5471 49.1959,37.3721 49.1959,35.8021 L49.1959,29.2981 C49.1959,28.2881 49.1349,27.5641 49.0309,27.1511 C48.9279,26.6771 48.6399,26.5121 47.9789,26.5121 L47.8139,26.5121 L48.2469,25.3561 C48.9279,25.3771 50.0009,25.3771 50.8479,25.3771 L54.8119,25.3771 C56.5249,25.3771 56.9169,25.3351 58.7139,25.3141 C58.4449,26.2431 58.1559,27.1311 58.0329,28.1021 L57.5989,28.1421 C57.0409,27.1111 55.7199,27.0071 54.5429,27.0071 C54.1509,27.0071 53.7999,27.0281 53.3669,27.0481 C53.3039,27.4611 53.2839,28.2671 53.2839,29.0101 L53.2839,30.8471 L55.5959,30.8471 C56.4629,30.8471 56.8149,30.8061 57.8059,30.7231 C57.7639,31.1361 57.7439,31.4461 57.7439,31.8381 C57.7439,32.1481 57.7639,32.5191 57.7849,32.8711 C56.4219,32.7671 55.7819,32.7471 54.8939,32.7471 L53.2639,32.7471 L53.2639,35.0591 C53.2639,37.1441 53.4079,37.8871 55.7409,37.8871 C56.9799,37.8871 58.1359,37.7221 59.0439,36.6911 L59.5189,36.8141 Z" id="Fill-20"></path>
                    <path d="M71.4569,35.3893 C71.4569,34.3783 71.1669,34.1093 70.3009,34.1093 L70.1359,34.1093 L70.5489,32.8913 C71.2279,32.9113 72.3019,32.9323 73.1489,32.9323 C74.1819,32.9323 74.9249,32.9323 75.6879,32.8913 C75.5649,34.1093 75.5439,34.5833 75.5439,36.4013 C75.5439,37.8043 75.5859,38.6523 75.6259,39.2293 C73.7059,39.7453 71.6629,40.0963 69.4119,40.0963 C65.2209,40.0963 61.4219,37.8263 61.4219,32.7053 C61.4219,27.9373 64.8909,24.9013 70.3409,24.9013 C72.1789,24.9013 73.9349,25.2943 75.4209,25.8923 C75.0899,27.0903 74.8619,27.9983 74.6559,29.1133 L74.1399,29.1543 C73.2519,27.7093 71.9099,26.6983 70.0719,26.6983 C67.5119,26.6983 66.0059,28.7423 66.0059,32.2093 C66.0059,35.9483 67.4109,38.2803 69.6599,38.2803 C71.2919,38.2803 71.4569,37.5163 71.4569,36.0913 L71.4569,35.3893 Z" id="Fill-22"></path>
                    <path d="M84.992,27.524 L82.947,33.531 C83.423,33.552 84.145,33.573 84.846,33.573 C85.549,33.573 86.25,33.552 86.745,33.531 L84.992,27.524 Z M87.241,35.41 C86.745,35.389 85.797,35.369 84.827,35.369 C83.855,35.369 82.864,35.389 82.307,35.41 L81.833,36.959 C81.647,37.537 81.564,38.197 81.564,38.693 C81.564,39.064 81.585,39.271 81.729,39.725 C81.194,39.704 80.656,39.684 80.099,39.684 C79.417,39.684 78.716,39.684 77.952,39.725 L77.869,39.499 C78.426,38.547 78.983,37.372 79.438,36.195 L82.721,27.875 C83.216,26.615 83.32,26.285 83.567,25.273 C84.702,25.252 86.809,25.087 88.274,24.839 C88.439,25.727 88.522,26.058 88.831,26.966 L91.908,36.071 C92.3,37.226 93.104,39.064 93.477,39.725 C93.043,39.704 92.156,39.684 91.122,39.684 C90.174,39.684 89.017,39.684 88.149,39.725 C88.13,38.547 88.048,38.115 87.696,36.918 L87.241,35.41 Z" id="Fill-24"></path>
                    <path d="M105.1165,28.3902 C104.3945,27.4612 103.4455,27.1112 101.8135,27.1112 C101.1745,27.1112 100.9265,27.1512 100.5345,27.2142 C100.5135,27.5442 100.4725,28.6182 100.4725,29.2152 L100.4725,35.7402 C100.4725,37.5162 100.9265,37.8472 102.5375,37.8472 C104.3545,37.8472 106.2115,36.5042 106.2115,32.7672 C106.2115,30.6412 105.8815,29.3402 105.1165,28.3902 M102.4125,39.7452 C101.1745,39.7452 99.8945,39.6842 98.6965,39.6842 C97.9535,39.6842 96.6115,39.7032 96.0535,39.7252 C96.3235,38.4862 96.3445,37.1442 96.3445,35.8022 L96.3445,29.2982 C96.3445,28.2872 96.2805,27.5642 96.1785,27.1512 C96.0745,26.6772 95.7845,26.5122 95.1245,26.5122 L94.9595,26.5122 L95.3935,25.3552 C96.0745,25.3772 97.1485,25.3772 97.9955,25.3772 C100.0795,25.3772 102.1855,25.3552 104.3335,25.3552 C106.3765,25.3552 107.3885,25.6442 108.4005,26.3472 C109.9485,27.3992 110.7745,29.2372 110.7745,31.6312 C110.7745,36.3802 107.6765,39.7452 102.4125,39.7452" id="Fill-26"></path>
                    <path d="M124.5785,36.8141 C124.3515,37.6811 124.1045,39.0231 124.0615,39.8071 C121.1505,39.7251 119.6855,39.7041 118.4675,39.7041 C116.4245,39.7041 115.0605,39.7041 113.9665,39.7251 C114.1525,38.5471 114.2565,37.3721 114.2565,35.8021 L114.2565,29.2981 C114.2565,28.2881 114.1945,27.5641 114.0915,27.1511 C113.9875,26.6771 113.6995,26.5121 113.0385,26.5121 L112.8735,26.5121 L113.3055,25.3561 C113.9875,25.3771 115.0605,25.3771 115.9075,25.3771 L119.8715,25.3771 C121.5845,25.3771 121.9765,25.3351 123.7735,25.3141 C123.5055,26.2431 123.2155,27.1311 123.0925,28.1021 L122.6585,28.1421 C122.1015,27.1111 120.7805,27.0071 119.6025,27.0071 C119.2105,27.0071 118.8595,27.0281 118.4255,27.0481 C118.3645,27.4611 118.3435,28.2671 118.3435,29.0101 L118.3435,30.8471 L120.6555,30.8471 C121.5235,30.8471 121.8745,30.8061 122.8655,30.7231 C122.8235,31.1361 122.8025,31.4461 122.8025,31.8381 C122.8025,32.1481 122.8235,32.5191 122.8445,32.8711 C121.4805,32.7671 120.8415,32.7471 119.9535,32.7471 L118.3235,32.7471 L118.3235,35.0591 C118.3235,37.1441 118.4675,37.8871 120.8015,37.8871 C122.0395,37.8871 123.1955,37.7221 124.1045,36.6911 L124.5785,36.8141 Z" id="Fill-28"></path>
                    <path d="M130.7049,40.1588 C129.3429,40.1588 128.0219,39.8688 126.7009,39.3118 C126.9269,38.7128 127.2979,36.8758 127.4019,36.2568 L127.8359,36.2158 C128.5789,37.3088 129.5489,38.2388 131.0779,38.2388 C132.3989,38.2388 133.2439,37.5778 133.2439,36.5458 C133.2439,33.7788 126.8849,34.3978 126.8849,29.7538 C126.8849,26.8428 129.2399,24.8608 132.7079,24.8608 C133.9679,24.8608 135.1429,25.1288 136.3819,25.6858 C136.0109,26.5738 135.7019,27.6678 135.5159,28.4528 L135.1429,28.4938 C134.5249,27.5238 133.6989,26.8008 132.4179,26.8008 C131.3039,26.8008 130.6009,27.3988 130.6009,28.3068 C130.6009,31.0328 136.9599,30.3518 136.9599,35.0388 C136.9599,38.0128 134.3379,40.1588 130.7049,40.1588" id="Fill-30"></path>
                </g>
                <g id="Group-6" transform="translate(58.000000, 56.000000)">
                    <path d="M8.7796,7.6168 C7.8836,7.53013333 7.0396,7.35146667 6.17826667,7.0448 C5.15293333,6.6888 4.23826667,6.00613333 3.4156,5.31546667 C2.76226667,4.77813333 2.20626667,4.12346667 1.73826667,3.4168 C1.49693333,3.06613333 1.2996,2.6888 1.10493333,2.3128 L0.954266667,1.97813333 L0.868933333,1.75546667 C0.860933333,1.73813333 0.850266667,1.69813333 0.842266667,1.7048 L0.822266667,1.78746667 L0.790266667,1.95146667 L0.7556,2.29813333 C0.6916,2.80213333 0.668933333,3.30613333 0.658266667,3.80746667 C0.620933333,5.3008 0.872933333,6.83946667 1.56626667,8.19413333 C2.3556,9.69946667 3.62226667,10.9061333 5.0556,11.7394667 C5.95826667,12.2768 6.92493333,12.7554667 7.97026667,13.0021333 C8.58626667,13.1434667 9.21693333,13.2301333 9.85293333,13.2434667 C13.0662667,13.2768 16.2342667,11.5208 17.8582667,8.7368 C18.0196,8.4888 18.1476,8.2248 18.2582667,7.95146667 C18.3849333,7.68613333 18.4889333,7.41146667 18.5796,7.13146667 C19.0209333,5.92213333 19.1929333,4.61946667 19.1276,3.33546667 C19.1049333,3.0128 19.0662667,2.69146667 19.0076,2.37146667 L18.9636,2.14346667 L18.9462667,2.0848 C18.9342667,2.01813333 18.9182667,2.04746667 18.9049333,2.10213333 C18.8796,2.16213333 18.9329333,2.0648 18.7182667,2.49946667 C17.7502667,4.35813333 16.1836,5.91413333 14.2862667,6.81946667 C13.3342667,7.27813333 12.2956,7.62746667 11.2462667,7.71546667 C10.5302667,7.79546667 9.39426667,7.71013333 10.1409333,7.29013333 C10.4316,7.1288 11.0489333,7.02746667 11.4769333,7.04746667 C12.5289333,7.0888 13.4849333,6.57946667 14.4289333,6.02746667 C15.8022667,5.24746667 16.9222667,4.08213333 17.7542667,2.7648 C17.9436,2.42213333 18.0982667,2.19413333 18.2942667,1.7488 C18.5889333,1.0568 18.8089333,0.5408 19.0569333,0.0141333333 C19.2529333,0.559466667 19.4436,1.1528 19.5876,1.7968 L19.6636,2.1888 L19.7062667,2.4768 C19.7302667,2.6688 19.7516,2.86346667 19.7636,3.05546667 C19.8342667,4.39013333 19.5809333,5.5928 19.2609333,6.8728 C18.9262667,8.19546667 18.2396,9.45946667 17.3316,10.5114667 C16.7796,11.1888 16.0702667,11.7154667 15.3596,12.2128 C14.2836,12.9234667 13.0676,13.4128 11.8116,13.6861333 C11.1516,13.8234667 10.5729333,13.8688 9.89693333,13.9181333 C8.76626667,13.9568 7.67426667,13.6354667 6.6676,13.2448 C5.24493333,12.6781333 3.87026667,11.9221333 2.74893333,10.8368 C1.62893333,9.7648 0.7436,8.3968 0.362266667,6.89013333 C0.134266667,5.9128 0.0156,4.94213333 0.00077933512,3.9688 C-0.00173333333,3.4808 0.0302666667,2.99546667 0.0942666667,2.51146667 C0.116933333,2.1728 0.3516,1.1448 0.5836,0.462133333 L0.664933333,0.2008 L0.706266667,0.0674666667 C0.7196,0.0168 0.732933333,-0.0352 0.7516,0.0341333333 L0.9596,0.487466667 C1.0996,0.791466667 1.2356,1.08613333 1.39426667,1.51546667 C1.5956,1.93413333 1.62626667,2.0448 1.7396,2.2408 L2.04093333,2.7888 C2.4676,3.50613333 3.00226667,4.1648 3.62226667,4.72346667 C4.5116,5.5408 5.56626667,6.2168 6.7116,6.60613333 C7.5996,6.9248 8.8356,7.11946667 9.6596,7.3568 C9.80226667,7.40346667 9.91426667,7.47813333 9.8956,7.55013333 C9.8596,7.6928 9.3796,7.6568 9.1236,7.65013333 L8.7796,7.6168 Z" id="Fill-1"></path>
                    <path d="M14.2541333,24.3941333 C14.3021333,24.1488 14.3194667,23.9141333 14.2968,23.6648 C14.2781333,23.3768 14.3648,23.0781333 14.3181333,22.7834667 C14.2261333,22.3381333 14.1834667,21.8701333 13.9901333,21.4448 C13.8621333,21.1768 13.6221333,20.9781333 13.4634667,20.7434667 C13.2368,20.3848 13.0061333,19.9941333 12.6568,19.7234667 C12.2621333,19.4234667 11.7688,19.3061333 11.3168,19.1861333 C11.0314667,19.1021333 10.7541333,18.9714667 10.4514667,18.9034667 C10.2754667,18.8568 10.0928,18.8408 9.91146667,18.8248 C8.9888,18.8248 8.0688,19.1101333 7.3248,19.6568 C7.1888,19.7581333 7.07813333,19.8888 6.9608,20.0101333 C6.68746667,20.2568 6.45546667,20.5448 6.24746667,20.8474667 C6.05546667,21.1621333 5.88213333,21.4928 5.77546667,21.8461333 C5.59946667,22.3701333 5.55813333,22.9261333 5.55413333,23.4754667 C5.55946667,23.7554667 5.63413333,24.0261333 5.6488,24.3074667 C5.6568,24.4928 5.6968,24.8221333 5.2408,24.7421333 C5.0568,24.7048 4.95413333,24.5114667 5.01413333,24.3581333 C5.15946667,23.9968 4.94346667,23.7154667 4.91413333,23.3528 C4.89013333,22.8501333 4.89546667,22.3288 5.03813333,21.8301333 C5.1728,21.3728 5.3648,20.9221333 5.66346667,20.5461333 C5.9128,20.2181333 6.25013333,20.0274667 6.48346667,19.6981333 C6.72746667,19.3541333 7.06613333,19.0794667 7.4248,18.8474667 C7.65546667,18.7114667 7.90746667,18.6114667 8.1608,18.5288 C8.53013333,18.3834667 8.9208,18.3141333 9.3088,18.2328 C9.51146667,18.1941333 9.69146667,18.1968 9.89813333,18.1514667 C10.2501333,18.1074667 10.5821333,18.2728 10.8954667,18.3741333 C11.7501333,18.6634667 12.8368,18.7634667 13.4368,19.5834667 C13.7981333,20.0914667 14.1541333,20.5434667 14.4608,21.0728 C14.7328,21.5514667 14.8101333,22.1141333 14.8781333,22.6474667 C14.9301333,23.0381333 14.9048,23.4368 14.8821333,23.8274667 C14.8728,24.1288 14.8008,24.5528 14.4928,24.7234667 C14.4394667,24.7541333 14.3634667,24.7621333 14.2954667,24.7341333 C14.1634667,24.6781333 14.2194667,24.5581333 14.2341333,24.4874667 L14.2541333,24.3941333 Z" id="Fill-4"></path>
                </g>
            </g>
        </g>
    </g>
</svg>