<?xml version="1.0" encoding="UTF-8"?>
<svg width="107px" height="17px" viewBox="0 0 107 17" version="1.1" xmlns="http://www.w3.org/2000/svg" xmlns:xlink="http://www.w3.org/1999/xlink">
    <title>logo-designgood</title>
    <g id="Symbols" stroke="none" stroke-width="1" fill="none" fill-rule="evenodd">
        <g id="Footer" transform="translate(-417.000000, -152.000000)" fill="#BB8472">
            <g id="Group-20" transform="translate(0.000000, 150.000000)">
                <path d="M462.45797,3.79459022 C463.414407,3.79459022 464.053214,4.34247065 464.053214,5.15699239 C464.053214,5.93825326 463.448392,6.52031848 462.658519,6.57020978 C462.742922,6.05503587 462.137726,5.78894891 461.583695,5.78894891 C461.044976,5.78894891 460.441461,6.03785109 460.558541,6.80285109 C462.39,6.80285109 464.203159,7.86609022 464.203159,9.11318804 C464.203159,10.6424489 462.45797,11.7395033 460.054554,11.7395033 C459.416681,11.7395033 458.711584,11.6057207 457.988748,11.3906337 C456.662397,12.3539054 457.669998,12.7194054 459.467098,12.7194054 C459.954279,12.7194054 460.659376,12.6866989 461.213407,12.6866989 C462.909859,12.6866989 465.094053,13.0514598 465.094053,15.2457533 C465.094053,17.5237533 462.70875,18.9022315 459.467098,18.9022315 C457.636386,18.9022315 455.620997,18.5202859 455.620997,17.0241011 C455.620997,16.1931337 456.242065,15.811188 456.881059,15.811188 C457.484761,15.811188 458.141307,16.1770576 458.174545,16.9245033 C457.821623,17.0241011 457.603335,17.3733402 457.603335,17.7889163 C457.603335,18.3541663 458.073524,18.753112 459.634969,18.753112 C461.735321,18.753112 463.196118,18.0045576 463.196118,16.8917967 C463.196118,16.1101663 462.473656,15.6613293 461.130312,15.6613293 C460.692988,15.6613293 459.987891,15.6949598 459.215571,15.6949598 C457.535738,15.6949598 455.554708,15.4455033 455.554708,13.7495685 C455.554708,12.8524489 456.461474,12.0710033 457.854862,11.3230033 C457.014945,11.0571011 456.174842,10.3928076 456.174842,9.41198152 C456.174842,7.56729674 458.84547,6.75240543 460.441461,6.80285109 C459.88799,5.34011196 460.827808,3.79459022 462.45797,3.79459022 Z M484.448994,2.18463478 C486.116689,2.18463478 487.069018,2.81363478 488.160461,2.81363478 C488.676586,2.81363478 488.874334,2.49821087 489.093557,2.22399348 L489.411186,7.70390652 L489.272258,7.70390652 C489.034363,5.42553696 487.684484,2.32211304 484.588109,2.32211304 C481.313592,2.32211304 480.856661,6.34871087 480.856661,9.19713478 C480.856661,12.0446348 481.313592,16.0703087 484.588109,16.0703087 C485.044853,16.0703087 485.46201,16.0117326 485.858814,15.8936565 L485.858814,9.72653696 L483.913262,9.72653696 L483.913262,9.58868913 L491.276443,9.58868913 L491.276443,9.72653696 L489.748796,9.72653696 L489.748796,16.1689826 L489.63257,16.0188009 C489.459448,15.7963479 489.273973,15.5992978 488.835494,15.5992978 C487.64471,15.5992978 486.036955,16.2074174 484.448994,16.2074174 C480.182188,16.2074174 476.490141,13.3203739 476.490141,9.19713478 C476.490141,5.07186304 480.182188,2.18463478 484.448994,2.18463478 Z M506.881319,7.22838696 C509.618797,7.22838696 511.75164,9.12333261 511.75164,11.7165717 C511.75164,14.3090717 509.618797,16.2036478 506.881319,16.2036478 C504.143654,16.2036478 502.010252,14.3090717 502.010252,11.7165717 C502.010252,9.12333261 504.143654,7.22838696 506.881319,7.22838696 Z M496.283955,7.22838696 C499.02218,7.22838696 501.15465,9.12333261 501.15465,11.7165717 C501.15465,14.3090717 499.02218,16.2036478 496.283955,16.2036478 C493.547598,16.2036478 491.413821,14.3090717 491.413821,11.7165717 C491.413821,9.12333261 493.547598,7.22838696 496.283955,7.22838696 Z M521.626,2.94011848 L521.626,14.0760424 C521.626,14.9234554 521.944189,15.8209446 523.137775,14.840488 L523.204624,14.9234554 C522.430997,15.5718576 521.474747,16.1869989 520.264917,16.1869989 C519.22333,16.1869989 518.602449,15.3894772 518.519541,14.2756076 C518.183425,15.4556293 517.225868,16.1869989 515.932008,16.1869989 C513.531019,16.1869989 512.505492,13.9596293 512.505492,11.931825 C512.505492,8.87330326 514.840378,7.22836848 517.057996,7.22836848 C517.896419,7.22836848 518.334304,7.57760761 518.552966,8.1759337 L518.519541,3.47266196 L516.838214,3.68867283 L516.822342,3.57189022 L521.626,2.94011848 Z M423.298272,4.51513152 C427.397465,4.51513152 430.008416,6.36375052 430.049601,10.2062249 C430.253623,10.2174103 430.410845,10.2287279 430.505159,10.24075 C431.109981,8.32898913 432.907268,7.09926087 435.342429,7.09926087 C438.113145,7.09926087 439.591682,8.44577174 439.121119,10.5073913 C437.0555,10.8885978 435.224601,10.8555217 433.645976,10.7230326 C433.695274,12.3685217 434.284037,14.7949022 436.501469,14.7949022 C437.676567,14.7949022 438.852413,13.798 439.37358,12.5843478 L439.473481,12.6340543 C438.65093,14.4122174 437.022075,16.0577065 434.6026,16.0577065 C432.201425,16.0577065 430.286497,14.3623261 430.286497,11.7195652 C430.286497,11.2546522 430.353907,10.806 430.470987,10.3737935 C430.410096,10.3679304 430.259426,10.3626003 430.050202,10.3577937 L430.050096,10.2988272 C430.050096,13.6400663 427.934245,16.1497837 423.98675,16.1497837 L417.000019,16.1497837 L417.000019,16.0333707 C418.751556,16.0333707 418.811954,15.1653591 418.814037,13.3554904 L418.814111,7.50657717 C418.814111,5.49595761 418.814111,4.631175 417.000019,4.631175 L417.000019,4.51513152 L423.298272,4.51513152 Z M506.881319,7.34516957 C505.418311,7.34516957 505.355203,8.97965923 505.352654,11.4652089 L505.352552,11.7165717 C505.352552,14.3423326 505.369544,16.0874196 506.881319,16.0874196 C508.343062,16.0874196 508.406479,14.453103 508.409049,11.9678994 L508.409153,11.7165717 C508.409153,9.0904413 508.391787,7.34516957 506.881319,7.34516957 Z M496.283955,7.34516957 C494.772367,7.34516957 494.755001,9.0904413 494.755001,11.7165717 C494.755001,14.3423326 494.772367,16.0874196 496.283955,16.0874196 C497.698371,16.0874196 497.804331,14.5602415 497.812116,12.2135544 L497.812116,11.2195198 C497.804331,8.87250935 497.698371,7.34516957 496.283955,7.34516957 Z M422.761234,4.631175 L422.273492,4.631175 L422.273492,14.0885337 C422.273492,15.6673163 422.324283,16.0333707 423.399107,16.0333707 C425.313848,16.0333707 426.35506,14.5543707 426.35506,10.3324576 L426.355019,10.3246348 L426.31445,10.3264665 C425.723981,10.3525139 425.285278,10.5690594 425.285278,11.2047609 C425.285278,11.7031196 425.704676,12.0689891 426.074777,12.2351087 C426.023613,13.2824565 425.267912,13.7641848 424.428556,13.7641848 C423.538408,13.7641848 422.698865,13.1828587 422.698865,12.0689891 C422.698865,10.489837 424.377578,10.1077065 425.587409,10.1077065 C425.71317,10.1077065 425.990289,10.1101086 426.352995,10.1147468 L426.35506,10.3324576 C426.35506,6.4767837 425.969087,4.631175 422.761234,4.631175 Z M444.453861,6.91876522 C445.193129,6.91876522 445.932585,7.05217826 446.520041,7.23437391 L447.62829,6.93576522 L447.796908,9.86124348 L447.679081,9.86124348 C447.477411,7.84988478 445.613088,7.05217826 444.387011,7.05217826 C443.413208,7.05217826 442.758342,7.56716739 442.758342,8.19912391 C442.758342,10.0938848 448.619832,9.59478696 448.619832,12.8691348 C448.619832,14.6642978 446.839351,15.8772109 444.488406,15.8772109 C443.69816,15.8772109 442.707552,15.7447217 441.783419,15.5285261 L440.540911,15.8441348 L440.35698,12.3042543 L440.474061,12.3042543 C440.860594,15.1131348 443.312374,15.7447217 444.488406,15.7447217 C445.562297,15.7447217 446.335737,15.2295478 446.335737,14.5807761 C446.335737,12.769537 440.35698,12.9687326 440.35698,9.69475435 C440.35698,7.65013478 442.707552,6.91876522 444.453861,6.91876522 Z M473.507036,6.91876522 C474.867186,6.91876522 475.455202,7.66731957 475.455202,9.36214565 L475.455202,13.5339826 C475.455202,15.3121457 475.606081,15.6451239 476.916746,15.6451239 L476.916746,15.7611674 L471.441604,15.7611674 L471.441604,15.6451239 C472.290755,15.6451239 472.345006,15.236163 472.348183,14.0423334 L472.34837,9.79472174 C472.34837,9.1130587 472.264341,8.21612391 471.289231,8.21612391 C470.886826,8.21612391 470.315428,8.43139565 469.811628,8.86378696 L469.811628,13.8664065 C469.811628,14.9133848 469.82806,15.6451239 470.73576,15.6451239 L470.73576,15.7611674 L465.243438,15.7611674 L465.243438,15.6451239 C466.55261,15.6451239 466.704422,15.3121457 466.704422,13.5339826 L466.704422,9.54563478 C466.704422,8.43139565 466.470448,7.98311304 465.041768,8.31553696 L465.007783,8.19912391 L469.846733,6.91876522 L469.795942,8.71429783 C471.458036,7.36797174 472.482816,6.91876522 473.507036,6.91876522 Z M453.757608,6.91883913 L453.757608,13.5340565 C453.757608,15.3122196 453.90886,15.6451978 455.219152,15.6451978 L455.219152,15.7612413 L449.189418,15.7612413 L449.189418,15.6451978 C450.49915,15.6451978 450.650402,15.3122196 450.650402,13.5340565 L450.650402,9.5457087 C450.650402,8.43146957 450.415121,7.98318696 448.987748,8.31561087 L448.95395,8.19919783 L453.757608,6.91883913 Z M517.37712,7.41148804 C515.813994,7.41148804 515.813994,10.1377707 515.813994,11.7328141 C515.813994,13.7935098 515.83248,15.6053033 517.124659,15.6053033 C517.896419,15.6053033 518.350176,14.558325 518.519541,13.8430315 L518.519541,8.77425978 C518.519541,8.24208587 518.131887,7.41148804 517.37712,7.41148804 Z M460.122337,6.93589457 C459.2996,6.93589457 458.996349,7.58392717 458.996349,9.19634022 C458.996349,10.8421989 459.383256,11.6057207 460.239791,11.6057207 C461.348974,11.6057207 461.364473,10.2261337 461.364473,9.31256848 C461.364473,7.75004674 460.944888,6.93589457 460.122337,6.93589457 Z M435.207235,7.2158587 C433.864078,7.2158587 433.645976,9.04409783 433.645976,10.4730217 L433.645976,10.5899891 C434.48552,10.6727717 435.342429,10.7060326 436.114748,10.689587 C436.433872,9.59253261 436.400634,7.2158587 435.207235,7.2158587 Z M452.195789,2.6309587 C453.203016,2.6309587 454.009321,3.41203478 454.009321,4.40930652 C454.009321,5.40657826 453.203016,6.2211 452.195789,6.2211 C451.204993,6.2211 450.381883,5.40657826 450.381883,4.40930652 C450.381883,3.42866522 451.204993,2.6309587 452.195789,2.6309587 Z" id="logo-designgood"></path>
            </g>
        </g>
    </g>
</svg>