<?xml version="1.0" encoding="UTF-8"?>
<svg width="27px" height="25px" viewBox="0 0 27 25" version="1.1" xmlns="http://www.w3.org/2000/svg" xmlns:xlink="http://www.w3.org/1999/xlink">
    <title>menu-opened</title>
    <g id="Welcome" stroke="none" stroke-width="1" fill="none" fill-rule="evenodd">
        <g id="Mobile-Navigation" transform="translate(-271.000000, -23.000000)" stroke="#BB8472">
            <g id="menu-opened" transform="translate(272.823223, 24.000000)">
                <g id="stars-copy-2" transform="translate(14.176777, 14.000000)" fill="#BB8472">
                    <path d="M7.59983757,4.72371465 C7.14515047,4.77113451 6.99557116,5.2583353 6.63012172,5.41283226 C6.50178947,5.47401917 6.31226569,5.48855106 6.23237674,5.60863038 C6.1907325,5.68587885 6.1371899,5.73635806 6.08704684,5.80366366 C5.97571224,5.93445069 5.87712588,6.04841131 5.77344022,6.1700203 C5.70544963,6.25415231 5.60856303,6.32145791 5.56266938,6.41859214 C5.48702984,6.57232425 5.39269289,6.71917284 5.38334418,6.89661489 C5.37059595,7.0648789 5.1793724,7.14289222 5.09948345,7.2874463 C5.05783921,7.35169256 5.04424109,7.42588169 5.01279544,7.49395213 C4.89211214,7.28438695 4.78417707,7.08782399 4.75103165,6.840017 C4.69833894,6.43006468 4.15696383,6.29621831 3.98528758,5.96733865 C3.9164471,5.85184836 3.90114922,5.68128984 3.76771768,5.60939521 C3.68187955,5.57115339 3.62578731,5.52373354 3.55099765,5.47784335 C3.40566776,5.37764978 3.27903528,5.28969359 3.14475385,5.19561872 C3.0504169,5.13519664 2.97647713,5.04800529 2.86769218,5.00670412 C2.69686581,4.93786884 2.53368838,4.85450168 2.33736554,4.84532364 C2.14954152,4.83385109 2.06285351,4.6617629 1.90307561,4.58910344 C1.83168549,4.55239129 1.74839701,4.54091875 1.67190759,4.51185496 C1.90562526,4.40324819 2.12404505,4.30687881 2.40025684,4.27628535 C2.85494394,4.22886549 3.00452325,3.7416647 3.36912281,3.58716774 C3.49830494,3.52521599 3.68697884,3.51144894 3.76771768,3.39136962 C3.80851203,3.31412115 3.86290451,3.26364194 3.91219769,3.19633634 C4.02438217,3.06631415 4.12211865,2.95158869 4.22665419,2.8299797 C4.2937949,2.74584769 4.3906815,2.67854209 4.43657515,2.58140786 C4.51306457,2.42767575 4.60655164,2.28082716 4.61590035,2.10338511 C4.62864858,1.9351211 4.81987213,1.85710778 4.90061096,1.7125537 C4.94140532,1.64830744 4.95500344,1.57411831 4.98644909,1.50604787 C5.10628251,1.71561305 5.21421758,1.91217601 5.24821288,2.159983 C5.30175547,2.56993532 5.8422807,2.70378169 6.01480683,3.03266135 C6.08279743,3.14815164 6.09809531,3.31871016 6.23237674,3.39060479 C6.31736498,3.42884661 6.37345722,3.47626646 6.44824688,3.52215665 C6.59272689,3.62235022 6.72020925,3.71030641 6.85534056,3.80438128 C6.94882763,3.86480336 7.02361728,3.95199471 7.13240224,3.99329588 C7.30237872,4.06213116 7.46640603,4.14549832 7.66272888,4.15467636 C7.84970301,4.16614891 7.93639102,4.3382371 8.0970188,4.41089656 C8.16840892,4.44760871 8.25084752,4.45908125 8.32563717,4.48814504 C8.09361927,4.59675181 7.87519948,4.69312119 7.59983757,4.72371465 M9.84182744,4.20821491 C9.72029425,4.15926538 9.59366177,4.18756433 9.4712787,4.16538407 C9.23161185,4.12025872 8.98684571,4.10572683 8.74887863,4.0483641 C8.58655108,4.02235966 8.43527201,3.96423209 8.27889364,3.91987158 C8.12166539,3.87704074 7.98228467,3.79749776 7.83015571,3.74395921 C7.75961547,3.72101412 7.68057641,3.71107124 7.61598534,3.67741844 C7.25308554,3.50609508 6.94202857,3.26211227 6.64456972,3.01201076 C6.59102712,2.95770738 6.55193253,2.89116661 6.50858853,2.82921486 C6.43124923,2.72672678 6.39215463,2.59976394 6.30376686,2.51027808 C6.14993814,2.37949105 5.94766612,2.26858977 5.82698282,2.10414994 C5.72499692,1.95424201 5.73859504,1.75538454 5.67060445,1.5970634 C5.6340595,1.48845663 5.49807831,1.40967848 5.44878513,1.30030688 C5.39014324,1.12286483 5.3969423,0.931655727 5.33235124,0.758802699 C5.29155688,0.64560691 5.36209712,0.517114393 5.30260535,0.407742786 C5.26776017,0.333553654 5.24906276,0.259364523 5.23121523,0.183645718 C5.27200959,0.147698407 5.25501194,0.107926913 5.20146934,0.071979602 C5.1989197,0.0429158184 5.19552017,0.00390916145 5.08588533,3.99904599e-05 C5.05613945,-0.000679857014 5.03744203,0.00849817991 5.01109568,0.0130871984 C4.77142883,-0.0144469124 4.705138,0.0803928025 4.67539212,0.143109388 C4.62099964,0.251716158 4.65244529,0.365676784 4.6277987,0.475813227 C4.57765564,0.692261931 4.56235775,0.911769981 4.49776669,1.12592418 C4.46887068,1.27200793 4.40427962,1.40814881 4.35498644,1.54964355 C4.30739302,1.69037345 4.21815537,1.81580662 4.16036336,1.95271234 C4.13486689,2.01619376 4.12296853,2.08732354 4.08472382,2.14621595 C3.89520004,2.47203626 3.62408754,2.75196638 3.34617599,3.01965913 C3.28668422,3.06784382 3.21189456,3.1030263 3.14305409,3.14279779 C3.02916984,3.2123979 2.88808936,3.24681554 2.78950299,3.32712336 C2.64332321,3.46479392 2.52009026,3.64682498 2.33821542,3.75619659 C2.17078858,3.84721212 1.94981915,3.83573958 1.77474337,3.89539682 C1.65321018,3.92828478 1.56567229,4.05142345 1.4441391,4.09578396 C1.24611649,4.14855767 1.03449576,4.14243898 0.842422334,4.19980171 C0.716639734,4.23727869 0.573009602,4.17379727 0.452326297,4.22810066 C0.3698877,4.25945895 0.287449104,4.27552051 0.203310743,4.29158208 C0.164216151,4.25486993 0.119172382,4.27016666 0.0792279077,4.31835135 C0.0469323751,4.3214107 0.00358837096,4.32370521 0.000188841223,4.4223691 C-0.00151092365,4.44990322 0.00868766557,4.46596478 0.0137869602,4.48967471 C-0.0168088075,4.70535858 0.0894264969,4.76501582 0.158266974,4.79178509 C0.27895028,4.84073462 0.405582763,4.81243567 0.528815716,4.83538077 C0.768482562,4.87974128 1.01239882,4.89427317 1.2503659,4.9516359 C1.41354333,4.97764034 1.56397252,5.03576791 1.72120077,5.08012842 C1.87757914,5.12295926 2.01695986,5.20250224 2.16908882,5.25527596 C2.23962906,5.27898588 2.31866812,5.28892876 2.38410907,5.32258156 C2.74615899,5.49390492 3.05806584,5.73788773 3.35467481,5.98798924 C3.40821741,6.04229262 3.44816188,6.10883339 3.49150588,6.17078514 C3.56884519,6.27327322 3.60793978,6.40023606 3.69632755,6.48972192 C3.85015627,6.62050895 4.05157841,6.73141023 4.1731116,6.89585006 C4.27509749,7.04575799 4.26149937,7.24461546 4.3277902,7.40217176 C4.36433514,7.51154337 4.50116622,7.59032152 4.55130928,7.69969312 C4.60910129,7.87790001 4.60230223,8.06834427 4.66689329,8.2411973 C4.70853753,8.35439309 4.63799729,8.48365044 4.69748906,8.59225721 C4.73233424,8.66644635 4.74933189,8.74063548 4.7680293,8.81635428 C4.72808483,8.85153676 4.74423259,8.89207309 4.79777519,8.9280204 C4.80117472,8.95708418 4.80372436,8.99609084 4.91420908,8.99996001 C4.94310508,9.00067986 4.9618025,8.99150182 4.98729897,8.9869128 C5.2278157,9.01444691 5.29325665,8.91884236 5.32385241,8.85689061 C5.37824489,8.74828384 5.34764912,8.63432322 5.37229571,8.52418677 C5.42158889,8.30850291 5.43773666,8.08823002 5.50147784,7.87407582 C5.53037385,7.72799207 5.59581479,7.59185119 5.64425809,7.45035645 C5.69185151,7.30962655 5.78108916,7.18419338 5.83973105,7.04728766 C5.86522753,6.98380624 5.876276,6.91267646 5.91452071,6.85378405 C6.10404449,6.52796374 6.37515699,6.24803362 6.65306854,5.98034087 C6.7134102,5.93215618 6.78734997,5.8969737 6.85619044,5.85720221 C6.97092457,5.7876021 7.11115517,5.75318446 7.20974154,5.67287664 C7.3567712,5.53520608 7.47915427,5.35317502 7.66102911,5.24380341 C7.82845595,5.15278788 8.04942538,5.16426042 8.22450116,5.10460318 C8.34603435,5.07171522 8.43357224,4.94857655 8.55510543,4.90421604 C8.75227816,4.85144233 8.96389888,4.85756102 9.1568222,4.80019829 C9.28175491,4.76272131 9.42623493,4.82620273 9.54691823,4.77189934 C9.62935683,4.74054105 9.71094554,4.72447949 9.7950839,4.70841792 C9.83502838,4.74513007 9.88007215,4.73059818 9.92001662,4.68164865 C9.95231215,4.6785893 9.99565616,4.67629479 9.99995556,4.5776309 C10.0007555,4.55086162 9.99055686,4.53403522 9.98545757,4.51109013 C10.0169032,4.29464142 9.90981803,4.23498418 9.84182744,4.20821491" id="Fill-7"></path>
                </g>
                <line x1="14" y1="0" x2="0" y2="14" id="Line-2-Copy" stroke-width="2" stroke-linecap="round"></line>
                <line x1="0" y1="0" x2="14" y2="14" id="Line-2" stroke-width="2" stroke-linecap="round"></line>
            </g>
        </g>
    </g>
</svg>