<?xml version="1.0" encoding="UTF-8"?>
<svg width="18px" height="22px" viewBox="0 0 18 22" version="1.1" xmlns="http://www.w3.org/2000/svg" xmlns:xlink="http://www.w3.org/1999/xlink">
    <title>moon</title>
    <g id="Welcome" stroke="none" stroke-width="1" fill="none" fill-rule="evenodd">
        <g id="Single-Pager" transform="translate(-273.000000, -12635.000000)" fill="#2A1048">
            <g id="moon" transform="translate(273.000000, 12635.000000)">
                <path d="M12.4769628,20.2092248 C12.5177087,20.4757103 12.4416498,20.7487757 12.4579481,21.0108747 C12.4775061,21.2362359 12.4612078,21.451179 12.4182889,21.6737986 L12.3998174,21.7587889 C12.3867788,21.8218462 12.3362539,21.931511 12.4530586,21.9814085 C12.5133624,22.0071797 12.5807289,21.9984066 12.627994,21.9715387 C12.9023492,21.8158146 12.9675426,21.430891 12.976235,21.1567289 C12.9974228,20.8025115 13.0186107,20.4406176 12.9724321,20.0864001 C12.911585,19.6022299 12.8409589,19.0922884 12.5964839,18.656919 C12.3215854,18.176587 12.0015949,17.7658922 11.6756283,17.3047516 C11.1339805,16.5634173 10.1593404,16.4674606 9.39060259,16.2064582 C9.10755494,16.1148881 8.80820897,15.9662923 8.49310794,16.0068682 C8.30622043,16.0452509 8.14486697,16.0430576 7.96232569,16.0786987 C7.61354144,16.1527225 7.26204081,16.2157798 6.9295549,16.3462809 C6.70246485,16.4219496 6.47646135,16.5129715 6.26892929,16.6363444 C5.9456791,16.8463526 5.64090034,17.0958401 5.4208729,17.4072882 C5.21008118,17.7050282 4.90801881,17.880492 4.68310187,18.1793286 C4.41635255,18.519838 4.24359026,18.9294361 4.12243935,19.3445175 C3.99368255,19.7963366 3.98824977,20.2689921 4.0094376,20.7262945 C4.03551493,21.0558373 4.22674866,21.310808 4.10016497,21.6387059 C4.04746704,21.7774319 4.13765112,21.9539923 4.30063441,21.9879884 C4.70700609,22.0636571 4.66951993,21.7637238 4.66191404,21.5942916 C4.64724555,21.3393209 4.57987912,21.0914784 4.57607618,20.8376043 C4.57879256,20.3380809 4.61736528,19.8330744 4.77545907,19.3549357 C4.87216249,19.0336177 5.02753989,18.7336844 5.20138874,18.4469108 C5.38881952,18.1722004 5.59852469,17.9090048 5.84517274,17.6847402 C5.95002532,17.5745271 6.05107496,17.4571857 6.17331243,17.3639706 C6.84426031,16.8666406 7.67275871,16.6072832 8.50451677,16.6072832 C8.66858661,16.6215396 8.83319974,16.6357961 8.99183681,16.678017 C9.2640189,16.738881 9.51501317,16.8578674 9.77252677,16.9329878 C10.1794417,17.0426526 10.6238428,17.1528658 10.9791464,17.4259312 C11.2937042,17.6715805 11.502866,18.0252495 11.7076817,18.3509541 C11.8500205,18.5658972 12.0651584,18.7468442 12.1803333,18.9913968 C12.3541821,19.3785136 12.3943846,19.8029165 12.4769628,20.2092248" id="Fill-5"></path>
                <path d="M0.713269644,1.6602477 L0.742393905,1.51961398 L0.761077394,1.44877626 C0.768770595,1.442005 0.777562825,1.47742387 0.785256026,1.4920081 L0.863287065,1.68472839 L1.00506177,1.98370526 C1.18310442,2.30716281 1.36169659,2.63322469 1.58150234,2.93480589 C2.008475,3.54473954 2.51457773,4.11039961 3.10970178,4.57397002 C3.85704132,5.1698403 4.69120412,5.75789759 5.62427951,6.06572918 C6.40678797,6.33137065 7.17500905,6.48502601 7.99158739,6.56003066 L8.30481058,6.58919914 C8.53725515,6.59544952 8.97466859,6.62513886 9.00708993,6.50533977 C9.02467439,6.44335676 8.92246472,6.37981115 8.7916803,6.3397045 C8.0415932,6.1396921 6.91563827,5.97093164 6.10675312,5.69539372 C5.06322535,5.35839366 4.1010257,4.77554502 3.29159104,4.0697721 C2.72559124,3.58588793 2.23872152,3.01710266 1.85021486,2.3983143 L1.57490817,1.92536831 C1.46555481,1.7435862 1.45236646,1.67743627 1.26718012,1.3117886 C1.12210833,0.947182658 0.998467599,0.68727071 0.871529781,0.424754434 L0.681947325,0.0294174222 C0.66491238,-0.0315238562 0.65227355,0.014312319 0.640184234,0.0580650317 L0.602267743,0.17265547 L0.528632818,0.398190287 C0.0186834884,1.93630648 0.0263766895,2.53426023 0,3.41452314 C0.0148368878,4.25467939 0.122541703,5.09171046 0.331357161,5.93447104 C0.678650239,7.23403078 1.48368878,8.41535403 2.50303793,9.33989052 C3.52238707,10.2769278 4.77308176,10.9306141 6.06938615,11.4171026 C6.9859761,11.7541027 7.98004759,12.0301615 9.00873848,11.9973469 C9.62309554,11.9556777 10.1506293,11.9166128 10.750699,11.7983763 C11.8947879,11.5619033 13.0020594,11.140523 13.9807444,10.5269433 C14.6269733,10.0987917 15.2732022,9.64355518 15.7749088,9.05914394 C16.601928,8.15127515 17.2272753,7.06110339 17.5328053,5.92092854 C17.8256964,4.81669341 18.0537449,3.77808734 17.9889022,2.62697431 C17.9784614,2.45977644 17.9592284,2.29362031 17.9366983,2.1269433 L17.8976828,1.87901127 L17.8322906,1.55451198 C17.7015062,0.996664893 17.5273101,0.482570518 17.348718,0.0117079909 C17.1228676,0.470590609 16.9228443,0.922181108 16.6535823,1.5133636 C16.488728,1.87119828 16.3376115,2.08839925 16.1678116,2.37747967 C15.4100313,3.51557107 14.3890336,4.52084173 13.1372399,5.19432099 C12.2772499,5.67091303 11.4057201,6.10896103 10.4490156,6.07614649 C10.0577614,6.05999966 9.4956082,6.14698422 9.23019277,6.28449274 C8.55099301,6.64024397 9.58517904,6.71316516 10.2363536,6.64336916 C11.1903105,6.56680191 12.1365742,6.26678331 13.0031584,5.87092544 C14.7297325,5.08858526 16.1551728,3.74631454 17.0371433,2.14413187 C17.0964909,2.04412567 17.214087,1.79254757 17.1943044,1.83473769 L17.214087,1.78629718 C17.2261763,1.73994014 17.2404636,1.713376 17.2509044,1.77119208 L17.2668403,1.82223691 L17.311351,2.03527095 C17.3641044,2.31028801 17.3987238,2.58843025 17.4201548,2.86709336 C17.4795024,3.97705801 17.3223413,5.10056517 16.9195473,6.14646335 C16.8382191,6.388145 16.7426036,6.624618 16.6272056,6.85431974 C16.5266445,7.09027187 16.4095979,7.31893188 16.2617786,7.53248679 C14.7835849,9.93680252 11.8964365,11.4535632 8.96807441,11.4249156 C8.38833676,11.4134566 7.81464377,11.3379311 7.25304009,11.2170902 C6.30073169,11.0050979 5.41876114,10.5920515 4.59613814,10.1269185 C3.2899425,9.40708218 2.13651185,8.36222573 1.41829657,7.06318686 C0.786904569,5.89332266 0.556108536,4.56511531 0.589628912,3.27493115 C0.598970656,2.84105008 0.620951231,2.40664815 0.678650239,1.97120448 L0.713269644,1.6602477" id="Fill-10"></path>
            </g>
        </g>
    </g>
</svg>