<?xml version="1.0" encoding="UTF-8"?>
<svg width="71px" height="29px" viewBox="0 0 71 29" version="1.1" xmlns="http://www.w3.org/2000/svg" xmlns:xlink="http://www.w3.org/1999/xlink">
    <title>MR-gradient-outlined</title>
    <defs>
        <linearGradient x1="50%" y1="0%" x2="50%" y2="120.332031%" id="linearGradient-1">
            <stop stop-color="#D5B1A9" offset="0%"></stop>
            <stop stop-color="#2A1048" offset="100%"></stop>
        </linearGradient>
    </defs>
    <g id="Welcome" stroke="none" stroke-width="1" fill="none" fill-rule="evenodd">
        <g id="Style-Guide" transform="translate(-29.000000, -20.000000)" fill="url(#linearGradient-1)" fill-rule="nonzero">
            <path d="M43.8585973,48.3116516 C44.9027149,48.2714932 45.5452489,48.2313348 46.3484163,48.2313348 C47.2319005,48.2313348 48.2358597,48.2313348 48.8783937,48.2714932 C49.1193439,46.5446833 49.7217195,44.9383484 50.3642534,43.4524887 L55.5446833,31.5656109 C55.9061086,30.7222851 56.7895928,28.7545249 57.2714932,27.5096154 C57.2714932,28.4734163 57.3116516,29.7584842 57.35181,30.4411765 L57.7533937,40.4004525 C57.8738688,42.9705882 57.8738688,45.540724 57.5526018,48.030543 C58.9179864,47.9502262 60.6447964,47.9100679 62.3716063,47.9100679 C64.0582579,47.9100679 65.7047511,47.9502262 66.8291855,48.030543 C66.22681,46.303733 65.8653846,44.0548643 65.7449095,40.4807692 L65.2228507,26.706448 C65.1425339,24.3371041 65.1023756,22.2087104 65.3433258,20.0803167 C64.5688429,20.1090013 63.3231139,20.1171969 62.1037278,20.1195385 L60.6849548,20.1204751 C58.9983032,20.1204751 57.6730769,20.0803167 55.3840498,20 C55.0226244,21.9677602 54.7816742,22.7307692 54.2596154,23.9756787 L49.3201357,35.6617647 C48.9988688,36.4649321 48.6776018,37.1877828 48.3161765,38.1917421 C47.9547511,37.1476244 47.6736425,36.3042986 47.3925339,35.581448 L42.6940045,23.574095 C42.091629,22.0079186 41.9309955,21.5661765 41.6498869,20 C40.2878488,20.0736237 38.2171828,20.1135032 36.5823792,20.1196385 L34.4275394,20.1197433 C32.7120351,20.1176941 30.8198083,20.1099071 29.8433258,20.0803167 L29,22.3291855 L29.321267,22.3291855 C31.2488688,22.3291855 31.5299774,23.1725113 31.5299774,25.2205882 C31.5299774,26.1442308 31.4496606,27.14819 31.4095023,27.9513575 L30.4858597,40.4807692 C30.2850679,43.0910633 30.0441176,45.5808824 29.3614253,48.030543 C30.2449095,47.9903846 31.3693439,47.9903846 32.4937783,47.9903846 C33.6182127,47.9903846 34.7024887,47.9903846 35.5458145,48.030543 C34.8229638,45.2997738 34.9032805,42.8099548 35.0237557,40.3602941 L35.5458145,31.0837104 L35.706448,27.790724 C35.9875566,28.5938914 36.8308824,30.4813348 37.3127828,31.6459276 L42.4530543,43.813914 C43.0955882,45.3800905 43.6979638,46.8257919 43.8585973,48.3116516 Z M89.5989819,48.2313348 C92.6108597,48.0707014 96.5062217,48.0707014 99.8795249,48.0707014 L100,47.6289593 C98.5141403,46.1029412 97.4298643,44.4966063 96.3857466,42.8099548 C95.1408371,40.8823529 93.8557692,38.7539593 90.7234163,33.2924208 C94.4983032,32.1679864 96.2652715,29.9994344 96.2652715,26.4654977 C96.2652715,24.3371041 95.6628959,22.7709276 94.4179864,21.6866516 C93.0124434,20.4417421 91.4864253,20.0401584 88.3540724,20.0401584 C84.1207108,20.0401584 82.2846505,20.1139215 77.9329606,20.1200684 L75.2013245,20.1196144 C73.4784946,20.1173765 72.1233974,20.10932 71.1662896,20.0803167 L70.3229638,22.3291855 L70.6442308,22.3291855 C71.9292986,22.3291855 72.4915158,22.6504525 72.6923077,23.574095 C72.8930995,24.3772624 73.0135747,25.7828054 73.0135747,27.7505656 L73.0135747,40.4004525 C73.0135747,43.050905 72.8529412,45.5808824 72.4513575,48.030543 C73.8167421,47.9502262 75.543552,47.9100679 77.270362,47.9100679 C78.9570136,47.9100679 80.6436652,47.9502262 81.7680995,48.030543 C81.2460407,46.6651584 80.9649321,44.0950226 80.9649321,40.4406109 L80.9649321,26.6662896 C80.9649321,25.3812217 81.0050905,24.4575792 81.1255656,23.4134615 C82.0893665,23.2929864 82.571267,23.2528281 83.1334842,23.2528281 C86.4264706,23.2528281 88.0729638,24.8591629 88.0729638,28.0316742 C88.0729638,30.9632353 86.5871041,32.7302036 84.0571267,32.7302036 C83.655543,32.7302036 83.1334842,32.6900452 82.4909502,32.6097285 L81.8484163,35.7420814 L82.1696833,35.7420814 C83.1334842,35.7420814 83.4547511,36.02319 84.4988688,37.9507919 C85.3020362,39.4366516 86.3863122,41.4847285 88.0328054,44.89819 C88.5548643,45.9824661 88.6753394,46.1430995 89.5989819,48.2313348 Z" id="MR-gradient-outlined"></path>
        </g>
    </g>
</svg>