<?xml version="1.0" encoding="UTF-8"?>
<svg width="72px" height="29px" viewBox="0 0 72 29" version="1.1" xmlns="http://www.w3.org/2000/svg" xmlns:xlink="http://www.w3.org/1999/xlink">
    <title>MR-outlined</title>
    <g id="Symbols" stroke="none" stroke-width="1" fill="none" fill-rule="evenodd">
        <g id="Header" transform="translate(-32.000000, -20.000000)" fill="#BB8472" fill-rule="nonzero">
            <g id="Group-10">
                <path d="M47.1785973,48.3916516 C48.2227149,48.3514932 48.8652489,48.3113348 49.6684163,48.3113348 C50.5519005,48.3113348 51.5558597,48.3113348 52.1983937,48.3514932 C52.4393439,46.6246833 53.0417195,45.0183484 53.6842534,43.5324887 L58.8646833,31.6456109 C59.2261086,30.8022851 60.1095928,28.8345249 60.5914932,27.5896154 C60.5914932,28.5534163 60.6316516,29.8384842 60.67181,30.5211765 L61.0733937,40.4804525 C61.1938688,43.0505882 61.1938688,45.620724 60.8726018,48.110543 C62.2379864,48.0302262 63.9647964,47.9900679 65.6916063,47.9900679 C67.3782579,47.9900679 69.0247511,48.0302262 70.1491855,48.110543 C69.54681,46.383733 69.1853846,44.1348643 69.0649095,40.5607692 L68.5428507,26.786448 C68.4625339,24.4171041 68.4223756,22.2887104 68.6633258,20.1603167 C67.8888429,20.1890013 66.6431139,20.1971969 65.4237278,20.1995385 L64.0049548,20.2004751 C62.3183032,20.2004751 60.9930769,20.1603167 58.7040498,20.08 C58.3426244,22.0477602 58.1016742,22.8107692 57.5796154,24.0556787 L52.6401357,35.7417647 C52.3188688,36.5449321 51.9976018,37.2677828 51.6361765,38.2717421 C51.2747511,37.2276244 50.9936425,36.3842986 50.7125339,35.661448 L46.0140045,23.654095 C45.411629,22.0879186 45.2509955,21.6461765 44.9698869,20.08 C43.6078488,20.1536237 41.5371828,20.1935032 39.9023792,20.1996385 L37.7475394,20.1997433 C36.0320351,20.1976941 34.1398083,20.1899071 33.1633258,20.1603167 L32.32,22.4091855 L32.641267,22.4091855 C34.5688688,22.4091855 34.8499774,23.2525113 34.8499774,25.3005882 C34.8499774,26.2242308 34.7696606,27.22819 34.7295023,28.0313575 L33.8058597,40.5607692 C33.6050679,43.1710633 33.3641176,45.6608824 32.6814253,48.110543 C33.5649095,48.0703846 34.6893439,48.0703846 35.8137783,48.0703846 C36.9382127,48.0703846 38.0224887,48.0703846 38.8658145,48.110543 C38.1429638,45.3797738 38.2232805,42.8899548 38.3437557,40.4402941 L38.8658145,31.1637104 L39.026448,27.870724 C39.3075566,28.6738914 40.1508824,30.5613348 40.6327828,31.7259276 L45.7730543,43.893914 C46.4155882,45.4600905 47.0179638,46.9057919 47.1785973,48.3916516 Z M92.9189819,48.3113348 C95.9308597,48.1507014 99.8262217,48.1507014 103.199525,48.1507014 L103.32,47.7089593 C101.83414,46.1829412 100.749864,44.5766063 99.7057466,42.8899548 C98.4608371,40.9623529 97.1757692,38.8339593 94.0434163,33.3724208 C97.8183032,32.2479864 99.5852715,30.0794344 99.5852715,26.5454977 C99.5852715,24.4171041 98.9828959,22.8509276 97.7379864,21.7666516 C96.3324434,20.5217421 94.8064253,20.1201584 91.6740724,20.1201584 C87.4407108,20.1201584 85.6046505,20.1939215 81.2529606,20.2000684 L78.5213245,20.1996144 C76.7984946,20.1973765 75.4433974,20.18932 74.4862896,20.1603167 L73.6429638,22.4091855 L73.9642308,22.4091855 C75.2492986,22.4091855 75.8115158,22.7304525 76.0123077,23.654095 C76.2130995,24.4572624 76.3335747,25.8628054 76.3335747,27.8305656 L76.3335747,40.4804525 C76.3335747,43.130905 76.1729412,45.6608824 75.7713575,48.110543 C77.1367421,48.0302262 78.863552,47.9900679 80.590362,47.9900679 C82.2770136,47.9900679 83.9636652,48.0302262 85.0880995,48.110543 C84.5660407,46.7451584 84.2849321,44.1750226 84.2849321,40.5206109 L84.2849321,26.7462896 C84.2849321,25.4612217 84.3250905,24.5375792 84.4455656,23.4934615 C85.4093665,23.3729864 85.891267,23.3328281 86.4534842,23.3328281 C89.7464706,23.3328281 91.3929638,24.9391629 91.3929638,28.1116742 C91.3929638,31.0432353 89.9071041,32.8102036 87.3771267,32.8102036 C86.975543,32.8102036 86.4534842,32.7700452 85.8109502,32.6897285 L85.1684163,35.8220814 L85.4896833,35.8220814 C86.4534842,35.8220814 86.7747511,36.10319 87.8188688,38.0307919 C88.6220362,39.5166516 89.7063122,41.5647285 91.3528054,44.97819 C91.8748643,46.0624661 91.9953394,46.2230995 92.9189819,48.3113348 Z" id="MR-outlined"></path>
            </g>
        </g>
    </g>
</svg>